<?xml version="1.0" encoding="utf-8"?>
<!-- Generator: Adobe Illustrator 25.2.1, SVG Export Plug-In . SVG Version: 6.00 Build 0)  -->
<svg version="1.1" id="图层_1" xmlns="http://www.w3.org/2000/svg" xmlns:xlink="http://www.w3.org/1999/xlink" x="0px" y="0px"
	 viewBox="0 0 100 100" style="enable-background:new 0 0 100 100;" xml:space="preserve">
<style type="text/css">
	.st0{fill:#04BAFE;}
</style>
<path class="st0" d="M50,7.3C26.7,7.3,7.8,26.2,7.8,49.6c0,8.3,1.7,13.5,4.8,17.9l1.8-0.9c2.6-1.5,5.3-3.1,8-4.4
	c9.6-4.5,17.1-3.2,25.4,4.2c2.4,2.2,5.2,2.1,8.4,2.7c3.8,0.7,5.8,1.2,5.8,3.8c0,1.2-1,1.8-1.8,1.8c-11.2,0.3-13.2,1-23-5.1
	c1,2.5,2.5,4.8,5,6c5.6,2.6,9.2,2.2,18.1,2c2.3,0,3.9-1.9,4.3-4.1c0.6-3.2-2-5.1-4.8-5.9c1.6-0.7,6.3-3.3,7.1-3.6
	c3.2-1.3,5.5-0.2,5.3,1.4c0.5-0.3,1.1-0.5,1.6-0.7c2.2-0.8,4.5,0.2,4,1.8l2.5-1c4.8-1.9,7.5,2.6,3,5.3c-13.7,8.6-14.8,9-28.4,13.2
	c-1.4,0.4-2.6,0.5-4.1,0.2c-10.8-1.8-11.3-1.8-20.8-6.8c-1.4-0.8-2.9-1.2-4.5-0.8c-2.1,0.5-4.3,1.2-6.5,2
	c7.7,8.2,18.6,13.3,30.8,13.3c23.3,0,42.2-18.9,42.2-42.2C92.2,26.2,73.3,7.3,50,7.3z M72.3,41.7c-1.7,2.4-4.2,5.2-7.6,8.5
	c-3.5,3.4-8.1,7.5-13.9,12.5c-0.5,0.4-1.1,0.4-1.5,0c-5.9-5-10.4-9.1-13.9-12.5c-3.4-3.3-5.8-6.1-7.6-8.5c-0.5-0.8-1-1.5-1.5-2.3
	h8.4c0.3,0,0.6-0.1,0.8-0.4l3.6-3.6l6.4,12.7c0.2,0.4,0.6,0.7,1.1,0.7h0.1c0.5,0,0.9-0.3,1-0.8l6.2-16.4l5.9,11.8
	c0.3,0.6,1,0.8,1.6,0.5c0.1-0.1,0.2-0.1,0.3-0.2l4.4-4.4h7.9C73.3,40.2,72.8,41,72.3,41.7z M75.5,35.4c-0.2,0.5-0.3,1.1-0.5,1.6
	h-9.5c-0.3,0-0.6,0.1-0.8,0.3L61,41l-6.4-12.7c-0.1-0.3-0.4-0.5-0.6-0.6c-0.6-0.2-1.3,0.1-1.5,0.7l-6.2,16.4l-5.9-11.8
	c-0.1-0.1-0.1-0.2-0.2-0.3c-0.5-0.5-1.2-0.5-1.7,0L34.1,37h-9c-0.2-0.5-0.4-1.1-0.5-1.6C24,33.6,24,31.9,24,29.9
	c0-4.8,2.4-9.2,6.3-11.8c6.5-4.3,15.4-2.6,19.7,4c2.6-4,7.1-6.3,11.8-6.3c7.8,0,14.2,6.4,14.2,14.2C76,31.9,76,33.6,75.5,35.4z"/>
</svg>
