<?xml version="1.0" encoding="utf-8"?>
<!-- Generator: Adobe Illustrator 25.2.1, SVG Export Plug-In . SVG Version: 6.00 Build 0)  -->
<svg version="1.1" id="图层_1" xmlns="http://www.w3.org/2000/svg" xmlns:xlink="http://www.w3.org/1999/xlink" x="0px" y="0px"
	 viewBox="0 0 100 100" style="enable-background:new 0 0 100 100;" xml:space="preserve">
<style type="text/css">
	.st0{fill:#1ED137;}
</style>
<path class="st0" d="M91.8,65.7c1.7,0.6,1.7,0.6,2,1c0.8,1,1.2,1.9,1.2,3.4c0,0.6,0,1.2,0,1.8c-1.1,2.5-2.9,3.3-5.6,3.3
	c-9.6-0.1-19.2,0-28.9,0c-0.6,0-1.1,0-1.8,0c0.1-0.4,0.2-0.6,0.3-0.9c1.3-4-0.8-7.5-5-8.1c-1.7-0.2-3.5-0.1-5.3-0.2
	c-3.5-0.1-7-0.2-10.5-0.5c-2.6-0.3-5.2-1-7.9-1.6c-0.2,1-0.3,1.8-0.5,2.7c3.4,0.7,6.7,1.5,10,2.1c1.1,0.2,2.3,0.1,3.5,0.1
	c3,0,6.1,0,9.1,0c0.7,0,1.4,0.1,2.1,0.2c1.5,0.4,2.2,1.5,2.2,3c0,1.6-0.9,2.6-2.5,2.9c-0.6,0.1-1.2,0.1-1.8,0.1c-7.7,0-15.4,0-23,0
	c-1,0-2.1-0.2-3.1-0.4c-4.3-1-6.5-6.5-4.3-10.2c1.7-2.9,4.4-3.8,7.4-3.8c5.9,0,11.7-0.1,17.6,0c3.3,0.1,6.5,0.5,9.8,0.8
	c1.5,0.1,3,0.4,4.3,0.6"/>
<path class="st0" d="M62.4,62.4c2.1,0.3,4.2,0.6,6.3,0.9"/>
<path class="st0" d="M79.9,65.1c3.6,0.5,7.2,1.1,11,1.7"/>
<path class="st0" d="M48.8,48.6c0.3,0.7,0.2,1.1-0.5,1.5c-1.4,0.9-2.9,1.8-4.2,2.8c-2.3,1.7-2.7,4.6-1,6.9c0.2,0.2,0.3,0.5,0.6,0.8
	c-2.2,0-4.2,0-6.2,0c2.4-4.2,1.9-6.1-2.1-8.8c-1.2-0.8-2.3-1.5-3.5-2.3c0.5-1.4,0.9-2.6,1.4-3.9c-1.8-0.6-2.7,0.1-3,1.7
	c-0.1,0.6-0.4,1.2-0.6,1.8c-0.5,0.9-0.3,1.5,0.7,2.1c1.8,1.1,3.5,2.2,5.2,3.4c1.3,0.9,1.6,2.5,0.8,3.7c-0.8,1.2-2.3,1.5-3.6,0.6
	c-2.7-1.7-5.3-3.5-8-5.3c-1.1-0.7-1.5-1.8-1.1-3c1.2-3.4,2.4-6.8,3.6-10.2c0.6-1.7,2.1-2.8,3.9-2.8c6.3-0.1,12.5-0.1,18.8,0
	c2.1,0,3.5,1.2,4.2,3.2c1.2,3.3,2.3,6.5,3.4,9.8c0.4,1.1,0.2,2.1-0.7,2.7c-2.9,2-5.8,3.9-8.8,5.8c-1.1,0.7-2.5,0.2-3.1-0.9
	c-0.7-1.1-0.6-2.2,0.4-3.2c0.5-0.5,1.1-0.8,1.6-1.2c1.7-1.1,3.4-2.3,5.1-3.4c-0.4-1.1-0.8-2.1-1.1-3.1c-0.7-2-0.7-2-3-1.7
	C48.1,46.7,48.4,47.6,48.8,48.6z"/>
<path class="st0" d="M40,37.3c-3.7-0.1-6.7-3.1-6.7-6.8c0-3.7,3-6.8,6.8-6.8c3.8,0,6.8,3,6.8,6.8C46.8,34.3,43.7,37.3,40,37.3z"/>
<path class="st0" d="M13.2,60.5c-4.1,0-7.5,3.3-7.5,7.5s3.3,7.5,7.5,7.5s7.5-3.3,7.5-7.5S17.3,60.5,13.2,60.5z"/>
</svg>
