<svg t="1636260548389" class="icon" viewBox="0 0 1096 1024" version="1.1" xmlns="http://www.w3.org/2000/svg" p-id="3173" width="200" height="200">
    <path d="M891.703378 1023.269096H203.556878A203.556878 203.556878 0 0 1 0 820.443122V203.559801A203.556878 203.556878 0 0 1 203.556878 0.002924H891.703378A203.556878 203.556878 0 0 1 1096.356613 203.559801v616.883321A203.556878 203.556878 0 0 1 891.703378 1023.269096z" fill="#910782" p-id="3174"></path>
    <path d="M779.875004 884.031806a81.130389 81.130389 0 0 1-44.219717-13.15628l-179.802484-117.310157a25.947107 25.947107 0 0 0-28.505272 0l-173.589797 115.482896a80.764937 80.764937 0 0 1-125.715559-67.243205V222.563316a80.764937 80.764937 0 0 1 80.764938-80.764937h470.702439a80.764937 80.764937 0 0 1 80.764937 80.764937V803.997773a80.034033 80.034033 0 0 1-42.392456 70.897728 70.897728 70.897728 0 0 1-38.007029 9.136305zM541.965619 694.362112a81.130389 81.130389 0 0 1 44.219717 13.156279L767.449629 825.194001a25.581654 25.581654 0 0 0 26.678011 0 25.216202 25.216202 0 0 0 13.521731-22.658037V223.29422a25.947107 25.947107 0 0 0-25.947106-25.947106H309.538017a25.947107 25.947107 0 0 0-25.947106 25.947106V803.997773a25.581654 25.581654 0 0 0 13.887183 23.023489 24.85075 24.85075 0 0 0 26.678011 0l173.589797-115.482897a73.090441 73.090441 0 0 1 44.219717-17.176253z" fill="#ffffff" p-id="3175"></path>
    <path d="M547.447402 300.770088l50.797856 102.692069 113.290184 16.445349-81.861294 80.034033 19.368967 113.290183-101.595713-53.356021-101.595713 53.356021 19.368967-113.290183-81.861294-80.034033 113.290184-16.445349 50.797856-102.692069z" fill="#ffffff" p-id="3176"></path>
</svg>