<svg t="1636260596620" class="icon" viewBox="0 0 1097 1024" version="1.1" xmlns="http://www.w3.org/2000/svg" p-id="3469" width="200" height="200">
    <path d="M892.342857 1024H204.8C91.428571 1024 0 932.571429 0 822.857143V204.8C0 91.428571 91.428571 0 204.8 0h687.542857C1005.714286 0 1097.142857 91.428571 1097.142857 201.142857v618.057143c0 113.371429-91.428571 204.8-204.8 204.8z" fill="#4B4846" p-id="3470"></path>
    <path d="M552.228571 402.285714c-69.485714 0-124.342857-54.857143-124.342857-124.342857s54.857143-124.342857 124.342857-124.342857 124.342857 54.857143 124.342858 124.342857-58.514286 124.342857-124.342858 124.342857z m0-201.142857c-43.885714 0-76.8 36.571429-76.8 76.8s36.571429 76.8 76.8 76.8 76.8-36.571429 76.8-76.8-32.914286-76.8-76.8-76.8zM288.914286 870.4c-51.2 0-95.085714-43.885714-95.085715-95.085714s43.885714-95.085714 95.085715-95.085715c51.2 0 95.085714 43.885714 95.085714 95.085715s-43.885714 95.085714-95.085714 95.085714z m0-142.628571c-25.6 0-51.2 21.942857-51.2 51.2s21.942857 51.2 51.2 51.2c29.257143 0 51.2-21.942857 51.2-51.2s-25.6-51.2-51.2-51.2zM552.228571 870.4c-51.2 0-95.085714-43.885714-95.085714-95.085714s43.885714-95.085714 95.085714-95.085715c51.2 0 95.085714 43.885714 95.085715 95.085715s-43.885714 95.085714-95.085715 95.085714z m0-142.628571c-29.257143 0-51.2 21.942857-51.2 51.2s21.942857 51.2 51.2 51.2 51.2-21.942857 51.2-51.2-25.6-51.2-51.2-51.2zM815.542857 870.4c-51.2 0-95.085714-43.885714-95.085714-95.085714s43.885714-95.085714 95.085714-95.085715 95.085714 43.885714 95.085714 95.085715-43.885714 95.085714-95.085714 95.085714z m0-142.628571c-29.257143 0-51.2 21.942857-51.2 51.2s21.942857 51.2 51.2 51.2 51.2-21.942857 51.2-51.2-25.6-51.2-51.2-51.2z" fill="#FFFFFF" p-id="3471"></path>
    <path d="M552.228571 727.771429c-10.971429 0-21.942857-10.971429-21.942857-21.942858v-325.485714c0-10.971429 10.971429-21.942857 21.942857-21.942857s21.942857 10.971429 21.942858 21.942857v325.485714c0 10.971429-10.971429 21.942857-21.942858 21.942858z" fill="#FFFFFF" p-id="3472"></path>
    <path d="M815.542857 727.771429c-10.971429 0-21.942857-10.971429-21.942857-21.942858v-153.6H310.857143v153.6c0 10.971429-10.971429 21.942857-21.942857 21.942858s-21.942857-10.971429-21.942857-21.942858v-175.542857c0-10.971429 10.971429-21.942857 21.942857-21.942857h526.628571c10.971429 0 21.942857 10.971429 21.942857 21.942857v175.542857c0 10.971429-10.971429 21.942857-21.942857 21.942858z" fill="#FFFFFF" p-id="3473"></path>
</svg>