<svg t="1636260375452" class="icon" viewBox="0 0 1097 1024" version="1.1" xmlns="http://www.w3.org/2000/svg" p-id="3608" width="200" height="200"><path d="M892.342857 1024H204.8C91.428571 1024 0 932.571429 0 822.857143V204.8C0 91.428571 91.428571 0 204.8 0h687.542857C1005.714286 0 1097.142857 91.428571 1097.142857 201.142857v618.057143c0 113.371429-91.428571 204.8-204.8 204.8z" fill="#67CFEE" p-id="3609"></path><path d="M874.057143 592.457143H234.057143c-10.971429 0-18.285714-7.314286-18.285714-18.285714V248.685714c0-10.971429 7.314286-18.285714 18.285714-18.285714h636.342857c10.971429 0 18.285714 7.314286 18.285714 18.285714v325.485715c3.657143 10.971429-7.314286 18.285714-14.628571 18.285714z m-621.714286-36.571429h599.771429V266.971429H252.342857v288.914285zM874.057143 709.485714H223.085714c-10.971429 0-18.285714-7.314286-18.285714-18.285714s7.314286-18.285714 18.285714-18.285714h650.971429c10.971429 0 18.285714 7.314286 18.285714 18.285714s-10.971429 18.285714-18.285714 18.285714zM874.057143 822.857143H223.085714c-10.971429 0-18.285714-7.314286-18.285714-18.285714s7.314286-18.285714 18.285714-18.285715h650.971429c10.971429 0 18.285714 7.314286 18.285714 18.285715s-10.971429 18.285714-18.285714 18.285714z" fill="#FFFFFF" p-id="3610"></path><path d="M508.342857 427.885714H340.114286c-10.971429 0-18.285714-7.314286-18.285715-18.285714s7.314286-18.285714 18.285715-18.285714h168.228571c10.971429 0 18.285714 7.314286 18.285714 18.285714s-7.314286 18.285714-18.285714 18.285714z" fill="#FFFFFF" p-id="3611"></path></svg>