<svg t="1636260287526" class="icon" viewBox="0 0 1096 1024" version="1.1" xmlns="http://www.w3.org/2000/svg" p-id="3317" width="200" height="200"><path d="M891.703378 1023.269096H203.556878A203.556878 203.556878 0 0 1 0 820.443122V203.559801A203.556878 203.556878 0 0 1 203.556878 0.002924H891.703378A203.556878 203.556878 0 0 1 1096.356613 203.559801v616.883321A203.556878 203.556878 0 0 1 891.703378 1023.269096z" fill="#FF6216" p-id="3318"></path><path d="M539.042001 882.569997a365.452204 365.452204 0 1 1 365.452205-365.452204A359.970421 359.970421 0 0 1 877.08529 657.816891l-46.777882-19.734419a314.654348 314.654348 0 1 0-149.835404 159.337161l22.658037 45.316074a361.066778 361.066778 0 0 1-164.08804 39.83429z" fill="#FFFFFF" p-id="3319"></path><path d="M847.849114 874.895501l-330.368793-342.063264v81.495842h-50.797856v-206.845948L884.394334 839.812089l-36.54522 35.083412z" fill="#FFFFFF" p-id="3320"></path><path d="M527.237895 477.795135l10.634659-49.701499 114.38654 24.485297-10.671204 49.7015z" fill="#FFFFFF" p-id="3321"></path></svg>