<svg id="图层_1" data-name="图层 1" xmlns="http://www.w3.org/2000/svg" viewBox="0 0 47.28 53.05"><defs><style>.cls-1{fill:#ff6216;}.cls-2{fill:#fff;}</style></defs><title>1230</title><path class="cls-1" d="M47.28,23.61A23.64,23.64,0,1,0,18.56,46.67l5.08,6.38,5.08-6.38A23.62,23.62,0,0,0,47.28,23.61Z"/><circle class="cls-2" cx="23.32" cy="12.55" r="5.68"/><path class="cls-1" d="M30.55,29.6V28.29a1.77,1.77,0,0,0-1.77-1.77H17.86a1.77,1.77,0,0,0-1.77,1.77V38.48H30.55V29.6Z"/><path class="cls-2" d="M37,31.86l-5.1-11.34a3.8,3.8,0,0,0-3.5-2.34h-.81a7.07,7.07,0,0,1-8.58,0h-.81a3.8,3.8,0,0,0-3.5,2.34L9.62,31.86A3.82,3.82,0,0,0,10,35.42a3.78,3.78,0,0,0,3.15,1.68h3V28.29a1.77,1.77,0,0,1,1.77-1.77H28.78a1.77,1.77,0,0,1,1.77,1.77V37.1h3a3.78,3.78,0,0,0,3.15-1.68A3.82,3.82,0,0,0,37,31.86Z"/><polygon class="cls-2" points="23.05 35.42 24.62 35.42 24.62 34.85 23.05 34.85 23.05 33.65 24.91 33.65 24.91 33.09 22.38 33.09 22.38 37.37 24.97 37.37 24.97 36.8 23.05 36.8 23.05 35.42"/><path class="cls-2" d="M19.74,33.09l-1.48,4.28h.63l.32-.94h1.64l.32.94h.65l-1.54-4.28Zm-.37,2.77s.58-1.75.63-2h0c.07.23.66,2,.66,2Z"/><path class="cls-2" d="M28.62,34.46a1.44,1.44,0,0,0-1.07-1.31,2.18,2.18,0,0,0-.43,0H25.74v4.27h1.51a1.44,1.44,0,0,0,1.34-1.08,5.53,5.53,0,0,0,.07-.7C28.65,35.19,28.63,34.82,28.62,34.46ZM28,36a.83.83,0,0,1-.85.8h-.81V33.69h.82a.87.87,0,0,1,.85.83C28,35,28,35.49,28,36Z"/></svg>