<svg t="1636260334794" class="icon" viewBox="0 0 1097 1024" version="1.1" xmlns="http://www.w3.org/2000/svg" p-id="3462" width="200" height="200">
    <path d="M892.342857 1024H204.8C91.428571 1024 0 932.571429 0 822.857143V204.8C0 91.428571 91.428571 0 204.8 0h687.542857C1005.714286 0 1097.142857 91.428571 1097.142857 201.142857v618.057143c0 113.371429-91.428571 204.8-204.8 204.8z" fill="#00AB92" p-id="3463"></path>
    <path d="M819.2 347.428571c-54.857143 0-98.742857-43.885714-98.742857-95.085714s43.885714-95.085714 98.742857-95.085714 98.742857 43.885714 98.742857 95.085714-43.885714 95.085714-98.742857 95.085714z m0-157.257142c-32.914286 0-62.171429 25.6-62.171429 58.514285s25.6 58.514286 62.171429 58.514286 62.171429-25.6 62.171429-58.514286-29.257143-58.514286-62.171429-58.514285zM277.942857 877.714286C223.085714 877.714286 182.857143 833.828571 182.857143 782.628571c0-54.857143 43.885714-98.742857 95.085714-98.742857s95.085714 43.885714 95.085714 98.742857c3.657143 51.2-40.228571 95.085714-95.085714 95.085715z m0-157.257143c-32.914286 0-58.514286 25.6-58.514286 62.171428 0 32.914286 25.6 58.514286 58.514286 58.514286s58.514286-25.6 58.514286-58.514286c3.657143-36.571429-25.6-62.171429-58.514286-62.171428zM815.542857 877.714286c-54.857143 0-95.085714-43.885714-95.085714-95.085715 0-54.857143 43.885714-98.742857 95.085714-98.742857 54.857143 0 98.742857 43.885714 98.742857 98.742857-3.657143 51.2-47.542857 95.085714-98.742857 95.085715z m0-157.257143c-32.914286 0-58.514286 25.6-58.514286 62.171428 0 32.914286 25.6 58.514286 58.514286 58.514286 32.914286 0 62.171429-25.6 62.171429-58.514286-3.657143-36.571429-29.257143-62.171429-62.171429-62.171428zM544.914286 877.714286c-54.857143 0-95.085714-43.885714-95.085715-95.085715 0-54.857143 43.885714-98.742857 95.085715-98.742857 54.857143 0 95.085714 43.885714 95.085714 98.742857 3.657143 51.2-40.228571 95.085714-95.085714 95.085715z m0-157.257143c-32.914286 0-58.514286 25.6-58.514286 62.171428 0 32.914286 25.6 58.514286 58.514286 58.514286s58.514286-25.6 58.514285-58.514286c3.657143-36.571429-25.6-62.171429-58.514285-62.171428z" fill="#FFFFFF" p-id="3464"></path>
    <path d="M815.542857 720.457143c-10.971429 0-18.285714-7.314286-18.285714-18.285714V321.828571c0-10.971429 7.314286-18.285714 18.285714-18.285714s18.285714 7.314286 18.285714 18.285714v380.342858c0 10.971429-10.971429 18.285714-18.285714 18.285714z" fill="#FFFFFF" p-id="3465"></path>
    <path d="M277.942857 720.457143c-10.971429 0-18.285714-7.314286-18.285714-18.285714V512c0-10.971429 7.314286-18.285714 18.285714-18.285714h537.6c10.971429 0 18.285714 7.314286 18.285714 18.285714s-7.314286 18.285714-18.285714 18.285714H296.228571v171.885715c0 10.971429-7.314286 18.285714-18.285714 18.285714z" fill="#FFFFFF" p-id="3466"></path>
    <path d="M544.914286 720.457143c-10.971429 0-18.285714-7.314286-18.285715-18.285714V512c0-10.971429 7.314286-18.285714 18.285715-18.285714s18.285714 7.314286 18.285714 18.285714v190.171429c0 10.971429-7.314286 18.285714-18.285714 18.285714z" fill="#FFFFFF" p-id="3467"></path>
</svg>