<svg id="图层_1" data-name="图层 1" xmlns="http://www.w3.org/2000/svg" viewBox="0 0 47.28 53.05"><defs><style>.cls-1{fill:#b4b4b5;}.cls-2{fill:#fff;}</style></defs><title>1230</title><path class="cls-1" d="M47.28,23.61A23.64,23.64,0,1,0,18.56,46.67l5.08,6.38,5.08-6.38A23.62,23.62,0,0,0,47.28,23.61Z"/><polygon class="cls-2" points="22.26 26.91 24.23 27.22 22.98 30.6 24.97 30.61 23.28 35.15 24.23 34.95 22.65 36.77 21.72 34.63 22.55 35 22.88 31.65 21.29 31.65 22.26 26.91"/><path class="cls-2" d="M31.36,10.82a2.68,2.68,0,0,0-1.62.5V10A2.74,2.74,0,0,0,27,7.28h0a2.78,2.78,0,0,0-1.62.53,2.73,2.73,0,0,0-5.36,0,2.78,2.78,0,0,0-1.63-.53A2.72,2.72,0,0,0,15.71,10v7.47a2.74,2.74,0,0,0-3.82.54,2.7,2.7,0,0,0-.55,1.64v7.12a29.22,29.22,0,0,0,.42,4c.42,1.77,2.63,4.2,6.73,7.4,1.1.86,2.75,2,3.44,2.48l.26.18.15.1a1.13,1.13,0,0,0,.5.13,1.25,1.25,0,0,0,.57-.16,42.94,42.94,0,0,0,3.74-2.81c4-3.25,6.14-5.76,6.5-7.54a26.78,26.78,0,0,0,.44-3.68V13.57A2.74,2.74,0,0,0,31.36,10.82ZM16.73,21V10a1.69,1.69,0,1,1,3.38,0V22.8h1V8.28a1.69,1.69,0,1,1,3.38,0V22.62h.94V10a1.69,1.69,0,1,1,3.38,0V22.36h.95V13.55a1.69,1.69,0,1,1,3.38,0v12a6.23,6.23,0,0,0-5.53-3.74h-.11a6.24,6.24,0,0,0-4.77,2.26,6.13,6.13,0,0,0-4.66-2.14h0a5.38,5.38,0,0,0-1.2.13V21h0s-.1,0-.1-.05Zm16,9.3c-.37,1.88-3.38,4.71-6.17,7A43.94,43.94,0,0,1,22.88,40s-2.34-1.63-3.72-2.67c-2.86-2.22-5.94-4.87-6.37-6.82a25.65,25.65,0,0,1-.39-3.71V19.66a1.69,1.69,0,1,1,3.38,0V23.1l.43-.19.48-.13a4.9,4.9,0,0,1,1.21-.16,5.43,5.43,0,0,1,4.81,2.76,5.52,5.52,0,0,1,4.69-2.81A5.71,5.71,0,0,1,33,28.4v0h0a5.17,5.17,0,0,1-.26,1.87Z"/></svg>