<svg id="图层_1" data-name="图层 1" xmlns="http://www.w3.org/2000/svg" viewBox="0 0 37.22 55.76"><defs><style>.cls-1{fill:#bd0d23;}.cls-2{fill:#fff;}</style></defs><title>20211015久心小程序UI图标</title><path class="cls-1" d="M35.37,0H1.87A2,2,0,0,0,0,2.11V42.16a5.92,5.92,0,0,0,5.91,5.92h9.5A1.65,1.65,0,0,1,17,49.33h0l1.6,6.43,1.6-6.43h0a1.64,1.64,0,0,1,1.6-1.25h9.5a5.91,5.91,0,0,0,5.91-5.92v-40A2,2,0,0,0,35.37,0Z"/><path class="cls-2" d="M27.71,25.85c-.15.22-.31.43-.45.66-1,1.59-2,3.17-3,4.78a3.78,3.78,0,0,1-4.75,1.43,11.54,11.54,0,0,1-3-2q-1.83-1.39-3.64-2.81a.82.82,0,0,0-.86-.15c-1.87.64-3.75,1.24-5.62,1.87a1.48,1.48,0,0,1-1.69-.38,1.87,1.87,0,0,1-.49-2,1.11,1.11,0,0,1,.52-.57q2.57-1.34,5.16-2.61c.75-.37,1.53-.69,2.29-1a1.72,1.72,0,0,1,1.63.07c1.91,1.05,3.85,2.06,5.76,3.1.38.21.56.15.78-.21.76-1.28,1.54-2.54,2.34-3.8.22-.35.15-.46-.24-.57-1.09-.32-2.17-.68-3.25-1a3.09,3.09,0,0,1-1.49-1.05c-1-1.24-1.93-2.46-2.88-3.7A1.21,1.21,0,0,1,15,14.19a1.23,1.23,0,0,1,1.75-.06c1.22,1.08,2.41,2.19,3.63,3.27a1.93,1.93,0,0,0,.86.42c1.74.34,3.48.64,5.22.95A2.9,2.9,0,0,1,28.41,20c1.3,2,2.57,3.95,3.85,5.92a1.38,1.38,0,0,1-.09,1.6c-.78,1.27-1.55,2.54-2.33,3.8-.47.77-.94,1.54-1.42,2.3a1.2,1.2,0,0,1-1.8.53,1.36,1.36,0,0,1-.68-1.88c.72-1.67,1.45-3.33,2.17-5C28.38,26.61,28.32,26.42,27.71,25.85Z"/><path class="cls-2" d="M26.94,17.93a3.55,3.55,0,1,1,3.58-3.54A3.56,3.56,0,0,1,26.94,17.93Z"/><path class="cls-2" d="M12.72,29.64l3.42,2.64-1.82,2C13.16,35.51,12,36.75,10.82,38a1.34,1.34,0,0,1-2.07.21c-.92-.75-1.08-1.53-.48-2.37l4.09-5.75C12.46,29.94,12.58,29.81,12.72,29.64Z"/></svg>