<svg t="1636273550164" class="icon" viewBox="0 0 1097 1024" version="1.1" xmlns="http://www.w3.org/2000/svg" p-id="3765" width="200" height="200">
    <path d="M892.342857 1024H204.8C91.428571 1024 0 932.571429 0 822.857143V204.8C0 91.428571 91.428571 0 204.8 0h687.542857C1005.714286 0 1097.142857 91.428571 1097.142857 201.142857v618.057143c0 113.371429-91.428571 204.8-204.8 204.8z" fill="#182987" p-id="3766"></path>
    <path d="M552.228571 819.2c-171.885714 0-314.514286-142.628571-314.514285-314.514286 0-171.885714 142.628571-314.514286 314.514285-314.514285s314.514286 142.628571 314.514286 314.514285c0 175.542857-142.628571 314.514286-314.514286 314.514286z m0-566.857143c-138.971429 0-252.342857 113.371429-252.342857 252.342857s113.371429 252.342857 252.342857 252.342857c138.971429 0 252.342857-113.371429 252.342858-252.342857s-113.371429-252.342857-252.342858-252.342857z" fill="#FFFFFF" p-id="3767"></path>
    <path d="M552.228571 625.371429c-65.828571 0-120.685714-54.857143-120.685714-120.685715 0-65.828571 54.857143-120.685714 120.685714-120.685714s120.685714 54.857143 120.685715 120.685714c-3.657143 65.828571-54.857143 120.685714-120.685715 120.685715z m0-175.542858c-32.914286 0-58.514286 25.6-58.514285 58.514286s25.6 58.514286 58.514285 58.514286c32.914286 0 58.514286-25.6 58.514286-58.514286s-29.257143-58.514286-58.514286-58.514286zM519.314286 146.285714h62.171428v157.257143h-62.171428zM519.314286 705.828571h62.171428v157.257143h-62.171428zM753.371429 471.771429h157.257142v62.171428h-157.257142zM193.828571 471.771429h157.257143v62.171428H193.828571z" fill="#FFFFFF" p-id="3768"></path>
</svg>