<?xml version="1.0" encoding="utf-8"?>
<!-- Generator: Adobe Illustrator 24.0.0, SVG Export Plug-In . SVG Version: 6.00 Build 0)  -->
<svg version="1.1" id="图层_1" xmlns="http://www.w3.org/2000/svg" xmlns:xlink="http://www.w3.org/1999/xlink" x="0px" y="0px"
	 viewBox="0 0 52.8 52.8" style="enable-background:new 0 0 52.8 52.8;" xml:space="preserve">
<style type="text/css">
	.st0{fill:#EA6000;}
	.st1{fill:#FFFFFF;}
	.st2{enable-background:new    ;}
</style>
<title>20220107久心小程序</title>
<path class="st0" d="M13,0h26.9c7.2,0,13,5.8,13,13v26.9c0,7.2-5.8,13-13,13H13c-7.2,0-13-5.8-13-13V13C0,5.8,5.8,0,13,0z"/>
<rect x="14.3" y="18.1" class="st1" width="24.2" height="3.6"/>
<rect x="24.6" y="7.8" class="st1" width="3.6" height="24.1"/>
<g class="st2">
	<path class="st1" d="M18,41.2c-0.3-0.3-1-0.6-1.6-0.9l0.4-0.5c0.5,0.2,1.2,0.6,1.6,0.8L18,41.2z M16.7,45.4
		c0.4-0.8,0.9-2.1,1.2-3.2l0.6,0.4c-0.3,1-0.8,2.2-1.1,3.1L16.7,45.4z M18.6,38.6c-0.3-0.3-1-0.7-1.6-1l0.4-0.5
		c0.5,0.2,1.2,0.6,1.6,0.9L18.6,38.6z M23.5,40.3c0.5,0.8,1.3,1.4,2.2,1.8c-0.2,0.1-0.4,0.4-0.5,0.6c-1-0.5-1.9-1.4-2.4-2.4h-1.2
		c-0.5,1-1.4,1.9-2.5,2.5c-0.1-0.2-0.3-0.4-0.4-0.6c0.9-0.5,1.6-1.1,2.1-2h-1.8v-0.7H21c0.2-0.4,0.3-0.9,0.4-1.3h-2.2v-0.7h5.9v0.7
		h-2.9c-0.1,0.5-0.2,0.9-0.4,1.3h3.7v0.7H23.5z M20.7,42.7c-0.3,0.7-0.7,1.7-1.2,2.3l-0.6-0.4c0.5-0.5,1-1.4,1.2-2.1L20.7,42.7z
		 M21.3,41.4H22v3.9c0,0.4-0.1,0.6-0.3,0.7c-0.3,0.1-0.7,0.1-1.4,0.1c0-0.2-0.1-0.5-0.2-0.7c0.5,0,0.9,0,1.1,0c0.1,0,0.2,0,0.2-0.1
		V41.4z M23,42.6c0.3,0.7,0.6,1.5,0.7,2.1l-0.6,0.2c-0.1-0.6-0.4-1.4-0.7-2.1L23,42.6z M24.2,42.3c0.5,0.7,1.1,1.7,1.3,2.4L24.9,45
		c-0.2-0.7-0.8-1.7-1.3-2.4L24.2,42.3z"/>
	<path class="st1" d="M30.9,39.2c-0.2,4.3-0.4,5.8-0.7,6.3c-0.2,0.3-0.4,0.3-0.7,0.4c-0.3,0-0.7,0-1.1,0c0-0.2-0.1-0.5-0.2-0.8
		c0.4,0,0.8,0,1,0c0.2,0,0.2,0,0.3-0.2c0.3-0.3,0.5-1.7,0.6-5.4h-1.4c-0.1,2.5-0.5,5-1.7,6.5c-0.1-0.2-0.4-0.4-0.6-0.5
		c1.2-1.4,1.5-3.7,1.6-6h-1.4v-0.7h1.4c0-0.6,0-1.2,0-1.8h0.7c0,0.6,0,1.2,0,1.8h2.1V39.2z M35.1,38.2v7.7h-0.8v-0.7h-1.9v0.7h-0.7
		v-7.7H35.1z M34.3,44.5v-5.6h-1.9v5.6H34.3z"/>
</g>
</svg>
