<?xml version="1.0" encoding="utf-8"?>
<!-- Generator: Adobe Illustrator 24.0.0, SVG Export Plug-In . SVG Version: 6.00 Build 0)  -->
<svg version="1.1" id="图层_1" xmlns="http://www.w3.org/2000/svg" xmlns:xlink="http://www.w3.org/1999/xlink" x="0px" y="0px"
	 viewBox="0 0 52.8 52.8" style="enable-background:new 0 0 52.8 52.8;" xml:space="preserve">
<style type="text/css">
	.st0{fill:#182987;}
	.st1{fill:#F2F2F2;}
	.st2{enable-background:new    ;}
	.st3{fill:#FFFFFF;}
</style>
<title>20220107久心小程序</title>
<path class="st0" d="M13,0h26.9c7.2,0,13,5.8,13,13v26.9c0,7.2-5.8,13-13,13H13c-7.2,0-13-5.8-13-13V13C0,5.8,5.8,0,13,0z"/>
<polygon class="st1" points="30,18.6 26.9,18.6 28.7,10.8 22.8,21.1 26,21.1 24.1,29 "/>
<path class="st1" d="M32.9,8.9c1.1,0,2.2,0.4,3.1,1.1c1.8,1.4,2.8,3.5,2.6,5.8c-0.6,7.2-12.3,15-12.3,15c-1.3-0.9-11.6-7.8-12.2-15
	c-0.2-2.2,0.8-4.4,2.6-5.8c0.9-0.7,2-1.1,3.1-1.1c3.1,0,5.9,2.8,6.6,3.8C27,11.7,29.8,8.9,32.9,8.9 M32.9,6.8
	c-2.5,0.1-4.8,1.1-6.5,2.8C26,9.3,25.6,9,25.2,8.7c-1.6-1.2-3.4-1.9-5.4-1.9c-1.6,0-3.1,0.5-4.4,1.5c-2.3,1.8-3.6,4.7-3.4,7.6
	c0.3,3.5,2.4,7.3,6.5,11.2c2.1,2,4.3,3.8,6.7,5.4l1.1,0.7l1.1-0.8c2.2-1.5,4.3-3.2,6.2-5c4.3-4.1,6.7-8,7-11.5
	c0.2-2.9-1.1-5.8-3.4-7.6C36,7.3,34.5,6.8,32.9,6.8"/>
<g class="st2">
	<path class="st3" d="M20.8,44.9V46h-0.7v-1c-1.2,0.2-2.5,0.3-3.4,0.4l-0.1-0.7c0.3,0,0.6-0.1,1-0.1v-3.4h-1v-0.6h9v0.6h-4.8v3
		l0.5-0.1v0.6L20.8,44.9z M24.4,40.1h-6.5v-3h6.5V40.1z M18.3,41.3V42h1.8v-0.7H18.3z M18.3,43.2h1.8v-0.7h-1.8V43.2z M18.3,44.6
		c0.6-0.1,1.2-0.1,1.8-0.2v-0.6h-1.8V44.6z M23.7,37.7h-5.1v0.7h5.1V37.7z M23.7,38.9h-5.1v0.7h5.1V38.9z M25.3,42.1
		c-0.3,1-0.8,1.8-1.5,2.4c0.5,0.4,1.2,0.7,1.9,0.9c-0.2,0.1-0.3,0.4-0.4,0.6c-0.8-0.2-1.4-0.6-2-1c-0.6,0.5-1.2,0.8-1.9,1
		c-0.1-0.2-0.3-0.4-0.4-0.6c0.6-0.2,1.2-0.5,1.8-0.9c-0.5-0.5-0.9-1.2-1.2-1.9l0.2-0.1h-0.6v-0.6h3.6l0.1,0L25.3,42.1z M22.3,42.5
		c0.3,0.6,0.6,1.1,1.1,1.5c0.5-0.4,0.8-1,1.1-1.5H22.3z"/>
	<path class="st3" d="M28.8,44c0.2,0.1,0.4,0.3,0.7,0.5c0.6,0.4,1.5,0.5,2.6,0.5c1.2,0,2.7-0.1,3.6-0.2c-0.1,0.2-0.2,0.6-0.2,0.8
		c-0.7,0-2.5,0.1-3.4,0.1c-1.2,0-2.1-0.1-2.8-0.5c-0.4-0.3-0.7-0.6-0.9-0.6c-0.4,0-0.8,0.6-1.3,1.3l-0.5-0.7c0.5-0.6,1-1,1.5-1.2
		v-2.8h-1.4v-0.7h2.1V44z M28.5,39.2c-0.3-0.5-1-1.2-1.5-1.7l0.6-0.4c0.5,0.5,1.2,1.2,1.5,1.7L28.5,39.2z M31.1,40.5
		c-0.1,1.3-0.3,2.9-1.1,4c-0.1-0.1-0.5-0.4-0.6-0.4c0.9-1.3,1-3.1,1-4.4v-2.2c1.6-0.1,3.5-0.3,4.5-0.6l0.6,0.6
		c-1.1,0.3-2.8,0.5-4.3,0.6v1.6v0.1h4.6v0.7h-1.8v3.9h-0.7v-3.9H31.1z"/>
</g>
</svg>
