<?xml version="1.0" encoding="utf-8"?>
<!-- Generator: Adobe Illustrator 24.0.0, SVG Export Plug-In . SVG Version: 6.00 Build 0)  -->
<svg version="1.1" id="图层_1" xmlns="http://www.w3.org/2000/svg" xmlns:xlink="http://www.w3.org/1999/xlink" x="0px" y="0px"
	 viewBox="0 0 52.8 52.8" style="enable-background:new 0 0 52.8 52.8;" xml:space="preserve">
<style type="text/css">
	.st0{fill:#57CA81;}
	.st1{fill:#FFFFFF;}
	.st2{enable-background:new    ;}
</style>
<title>20220110久心小程序开锁</title>
<path class="st0" d="M13,0h26.9c7.2,0,13,5.8,13,13v26.9c0,7.2-5.8,13-13,13H13c-7.2,0-13-5.8-13-13V13C0,5.8,5.8,0,13,0z"/>
<path class="st1" d="M36.6,9.7c0.4,0,0.7,0.3,0.7,0.7v5.2h2v-5.2c0-1.5-1.2-2.7-2.7-2.7h-5.2v2H36.6z"/>
<path class="st1" d="M15.5,10.3c0-0.4,0.3-0.7,0.7-0.7l0,0h5.2V7.6h-5.2c-1.5,0-2.7,1.2-2.7,2.7l0,0v5.2h2L15.5,10.3z"/>
<path class="st1" d="M37.3,30.7c0,0.4-0.3,0.7-0.7,0.7h-5.2v2.1h5.2c1.5,0,2.7-1.2,2.7-2.7v0v-5.2h-2L37.3,30.7z"/>
<path class="st1" d="M16.2,31.4c-0.4,0-0.7-0.3-0.7-0.7l0,0v-5.2h-2v5.2c0,1.5,1.2,2.7,2.7,2.7h0h5.2v-2.1H16.2z"/>
<rect x="17.5" y="19.2" class="st1" width="17.9" height="2.7"/>
<g class="st2">
	<path class="st1" d="M24.7,43.8h-2.2V48h-0.8v-4.2h-2.8c-0.1,1.6-0.6,3.1-2.5,4.3c-0.1-0.2-0.4-0.4-0.6-0.5c1.7-1,2.2-2.4,2.3-3.7
		h-2.3v-0.7h2.4c0-0.1,0-0.3,0-0.4v-2.4h-2v-0.7h8.2v0.7h-1.9v2.8h2.2V43.8z M21.7,43.1v-2.8H19v2.4c0,0.1,0,0.3,0,0.4H21.7z"/>
	<path class="st1" d="M29.2,40.7c-0.3,0.5-0.6,0.9-1,1.3c-0.1-0.2-0.3-0.5-0.4-0.7c0.6-0.6,1.1-1.5,1.5-2.4l0.6,0.2
		c-0.1,0.3-0.2,0.6-0.4,0.9h2.1v0.7H29.2z M31.5,46c0,0.2,0.1,0.5,0.2,0.6c-1.8,1-2.1,1.1-2.2,1.3c-0.1-0.1-0.3-0.4-0.5-0.5
		c0.2-0.2,0.6-0.6,0.6-1.1v-1.9h-1.3v-0.7h1.3v-1.3h-0.9v-0.7h2.8v0.7h-1.2v1.3h1.4v0.7h-1.4v2.2L31.5,46z M34.6,44.5
		c0,1.2-0.4,2.6-2.9,3.5c-0.1-0.2-0.3-0.4-0.5-0.5c2.4-0.8,2.7-2,2.7-3v-1.7h0.7V44.5z M32.9,41.3c-0.2-0.5-0.6-1.2-1-1.8l0.5-0.3
		c0.4,0.5,0.8,1.2,1,1.7L32.9,41.3z M33.9,41.6v-2.7h0.7v2.7h1.8v4.6h-0.7v-3.9h-2.9v3.9h-0.7v-4.6H33.9z M34.7,46.2
		c0.8,0.3,1.9,0.9,2.4,1.3L36.6,48c-0.5-0.4-1.6-1-2.4-1.4L34.7,46.2z M36.7,39.5c-0.3,0.6-0.7,1.3-1.1,1.8l-0.5-0.2
		c0.3-0.5,0.7-1.2,0.9-1.8L36.7,39.5z"/>
</g>
</svg>
