<svg id="图层_1" data-name="图层 1" xmlns="http://www.w3.org/2000/svg" viewBox="0 0 103.71 103.71"><defs><style>.cls-1{fill:#e94820;}.cls-2{fill:#fff;}</style></defs><title>20220110久心小程序UIlogo</title><rect class="cls-1" width="103.71" height="103.71" rx="11.48"/><rect class="cls-2" x="61.78" y="43.62" width="3.77" height="10.52"/><polygon class="cls-2" points="77.8 43.62 77.8 49.66 70.3 43.62 66.53 43.62 66.53 54.13 70.3 54.13 70.3 48.17 77.8 54.13 77.8 54.13 81.57 54.13 81.57 43.62 77.8 43.62"/><path class="cls-2" d="M57.5,47.54H49.62a.63.63,0,1,1,0-1.25H60.8V43.62H49.62a3.3,3.3,0,1,0,0,6.59H57.5a.63.63,0,0,1,0,1.26H46.32v2.66H57.5a3.3,3.3,0,1,0,0-6.59"/><path class="cls-2" d="M12.45,54.13H6.38V51.47h5.14A1.44,1.44,0,0,0,13,50V43.62h3.77v6.24a4.28,4.28,0,0,1-4.28,4.27"/><path class="cls-2" d="M41,54.13H34.92a4.3,4.3,0,0,1-4.3-4.3V43.62h3.77V50a1.45,1.45,0,0,0,1.44,1.44h4.3A1.45,1.45,0,0,0,41.57,50V43.62h3.77v6.21a4.29,4.29,0,0,1-4.3,4.3"/><path class="cls-2" d="M29.48,60.52H28.16a.18.18,0,0,1-.17-.17v-.58a.17.17,0,0,1,.17-.16h.34l1.28-2.09a.1.1,0,0,1,.07,0h1.67a.08.08,0,0,1,.07.13l-.21.33h5.55a.61.61,0,0,1,.59.72,6.87,6.87,0,0,1-2,3.56l2.18,2.09h.49a.17.17,0,0,1,.17.17v.58a.17.17,0,0,1-.17.17H36.7a.63.63,0,0,1-.42-.17l-1.9-1.86a10.56,10.56,0,0,1-2.74,1.32,17.21,17.21,0,0,1-3.46.69A.17.17,0,0,1,28,65V64a.16.16,0,0,1,.15-.16c6.27-.69,7.49-5,7.49-5H30.86L30,60.24a.61.61,0,0,1-.51.28"/><path class="cls-2" d="M40.33,65.06v-.51a.09.09,0,0,1,.08-.08h.16V58.26a.17.17,0,0,1,.17-.17H42.1a.17.17,0,0,1,.17.17v6.37a.6.6,0,0,1-.6.6H40.5a.18.18,0,0,1-.17-.17m7.9-.58v.58a.17.17,0,0,1-.17.17H43.59a.6.6,0,0,1-.6-.6V58.26a.16.16,0,0,1,.17-.17H44.8a.16.16,0,0,1,.16.17v6.05h3.1a.17.17,0,0,1,.17.17m-2.45-2V57.65a.18.18,0,0,1,.17-.17h1.36a.18.18,0,0,1,.17.17v4.69H48a.18.18,0,0,1,.17.17v.42a.17.17,0,0,1-.17.17H46.38a.6.6,0,0,1-.6-.6m2.89,2.13V58.26a.17.17,0,0,1,.17-.17H50.2a.17.17,0,0,1,.17.17v6.21h.24a.09.09,0,0,1,.09.08v.51a.18.18,0,0,1-.17.17H49.27a.6.6,0,0,1-.6-.6"/><path class="cls-2" d="M65.93,59.3v-.88a.6.6,0,0,1,.6-.6h3.81v-.25a.07.07,0,0,1,.08-.08h2a.08.08,0,0,1,.08.08v.25H75.2a.18.18,0,0,1,.17.17v.58a.17.17,0,0,1-.17.16H67.75v5.9a.59.59,0,0,1-.59.6H65.64a.17.17,0,0,1-.16-.17v-.58a.17.17,0,0,1,.16-.17h.29V63.23l-.72.18a.16.16,0,0,1-.21-.16V62a.16.16,0,0,1,.13-.16l.8-.21v-.74l-.81-.22a.15.15,0,0,1-.12-.16V59.27a.16.16,0,0,1,.21-.16Zm9.11.4v.72a.11.11,0,0,1,0,.07l-1.94,1.33v2.94a.47.47,0,0,1-.47.47H70a.17.17,0,0,1-.16-.17v-.42a.16.16,0,0,1,.16-.17H71.1v-2.9l1.65-1H68.38a.17.17,0,0,1-.17-.16v-.58a.18.18,0,0,1,.17-.17H75a.08.08,0,0,1,.08.09"/><path class="cls-2" d="M63,57.65v.57a.16.16,0,0,1-.16.17H54.49v5.93h8.37a.16.16,0,0,1,.17.16v.58a.17.17,0,0,1-.17.17h-9.6a.59.59,0,0,1-.59-.6V58.08a.59.59,0,0,1,.59-.6h9.57a.17.17,0,0,1,.16.17m-.3,3.56v.57a.16.16,0,0,1-.17.17H60.66l1.6,1.22h.25a.07.07,0,0,1,.08.08v.59a.08.08,0,0,1-.08.09H60.73a.16.16,0,0,1-.11,0L59,62.49a3.77,3.77,0,0,1-1.5,1,8,8,0,0,1-2.17.45.1.1,0,0,1-.1-.09v-1a.09.09,0,0,1,.08-.08,4.13,4.13,0,0,0,1.22-.28,2.75,2.75,0,0,0,.91-.59h-2a.17.17,0,0,1-.17-.17v-.57a.17.17,0,0,1,.17-.17h2.42a1.9,1.9,0,0,0,.12-.36c0-.13.06-.26.08-.4H57l-.3.3H55.34a.08.08,0,0,1-.09-.08v-.72a.14.14,0,0,1,0-.06L56,58.8a.07.07,0,0,1,.07,0h1.65a.09.09,0,0,1,.07.14l-.25.32h4.69a.17.17,0,0,1,.17.17V60a.18.18,0,0,1-.17.17H60.16A6.45,6.45,0,0,1,60,61h2.48a.16.16,0,0,1,.17.17"/><rect class="cls-2" x="6.38" y="60.95" width="19.08" height="0.82"/><rect class="cls-2" x="78.46" y="60.95" width="19.08" height="0.82"/><path class="cls-2" d="M88.42,43.62a5.26,5.26,0,0,0,0,10.51h9.16V47.55H91v2.66h2.76v1.26H89.52a2.59,2.59,0,1,1,0-5.18h8V43.62H88.42Z"/><path class="cls-2" d="M29.15,44.42c-1.66-3-5.44,0-5.48,0s-3.82-2.94-5.47,0a6.7,6.7,0,0,0,.64,6.28,9.29,9.29,0,0,0,4.83,3.95,9.28,9.28,0,0,0,4.84-3.95,6.7,6.7,0,0,0,.64-6.28M26.76,50a6,6,0,0,1-3.09,2.53A6,6,0,0,1,20.59,50a4.27,4.27,0,0,1-.41-4c1.06-1.88,3.48,0,3.49,0s2.44-1.88,3.5,0a4.27,4.27,0,0,1-.41,4"/></svg>