<?xml version="1.0" encoding="utf-8"?>
<!-- Generator: Adobe Illustrator 24.0.0, SVG Export Plug-In . SVG Version: 6.00 Build 0)  -->
<svg version="1.1" id="图层_1" xmlns="http://www.w3.org/2000/svg" xmlns:xlink="http://www.w3.org/1999/xlink" x="0px" y="0px"
	 viewBox="0 0 92.8 92.8" style="enable-background:new 0 0 92.8 92.8;" xml:space="preserve">
<style type="text/css">
	.st0{fill:#E4E7F2;}
	.st1{fill:#717071;}
	.st2{fill:#595857;}
</style>
<rect class="st0" width="92.8" height="92.8"/>
<g>
	<path class="st1" d="M68.5,56.1l-0.7-0.7c-5.1-5.1-8.5-8.4-9.8-9.7c-2.2-2.1-3.6-0.7-4.8,0.5c-1.3,1.3-3.6,1.2-4.4,0.4
		c-1.3-1.3-5.8-5.7-7.3-7.2c-1.4-1.2-3.2-0.2-3.4,0L24.3,53.2l-1,0.4V25.4c0-1.3,1.1-2.4,2.4-2.4H66c1.3,0,2.4,1.1,2.4,2.4V56.1z
		 M55.9,43.8c0.8,0,1.7,0.4,2.7,1.3c1.3,1.2,4.4,4.4,9.1,9.1V25.4c0-0.9-0.7-1.7-1.7-1.7H25.8c-0.9,0-1.7,0.7-1.7,1.7v26.9
		l13.5-13.6c0.9-0.6,2.9-1.4,4.4,0c1.5,1.4,5.6,5.5,7.3,7.2c0.5,0.5,2.3,0.6,3.3-0.4C53.4,44.8,54.5,43.8,55.9,43.8z"/>
	<path class="st1" d="M66,57.7H25.8c-1.3,0-2.4-1.1-2.4-2.4v-2.6l0.6-0.2l13.6-13.7c0.9-0.6,3-1.4,4.5,0c1.5,1.4,5.6,5.5,7.3,7.2
		c0.5,0.5,2.3,0.6,3.3-0.4c1.2-1.2,3.1-3.1,5.9-0.5c1.3,1.3,4.7,4.6,9.8,9.7l0.1,0.1v0.3C68.5,56.6,67.4,57.7,66,57.7z M24.1,53.2
		v2.1c0,0.9,0.7,1.7,1.7,1.7H66c0.9,0,1.7-0.7,1.7-1.7v0c-5-5-8.4-8.3-9.7-9.6c-2.2-2.1-3.6-0.7-4.8,0.5c-1.3,1.3-3.6,1.2-4.4,0.4
		c-1.3-1.3-5.8-5.7-7.3-7.2c-1.4-1.3-3.4,0-3.5,0L24.3,53.2L24.1,53.2z"/>
</g>
<g>
	<path class="st2" d="M31.1,68.5c-0.8,0.1-1.5,0.2-2.1,0.2l0-0.4c0.6-0.1,1.3-0.1,2.1-0.2v-0.9h-1.1c-0.4,0-0.6,0.1-0.7,0.1
		c0-0.1-0.1-0.3-0.1-0.4c0.1,0,0.3-0.2,0.4-0.4c0.1-0.1,0.3-0.4,0.5-0.8h-1.1v-0.4h1.3c0.1-0.2,0.2-0.5,0.3-0.7l0.4,0.1
		c-0.1,0.2-0.2,0.4-0.3,0.5H33v0.4h-2.5c-0.3,0.4-0.5,0.8-0.8,1.1h1.3v-0.6h0.4v0.6H33v0.4h-1.5v0.8L33,68l0,0.4l-1.5,0.2v1h-0.4
		V68.5z M30.1,69.6h5.6v3.2h-0.4v-0.3h-4.8v0.3h-0.4V69.6z M30.5,70v0.9h4.8V70H30.5z M35.3,72.2v-0.9h-4.8v0.9H35.3z M36.8,66.9
		v0.4h-1.1v2.2h-0.4v-2.2h-1.4c0,0.7-0.2,1.6-0.7,2.2c-0.1-0.1-0.2-0.2-0.3-0.2c0.6-0.7,0.6-1.7,0.6-2.4v-1.3c1-0.1,2.1-0.2,2.7-0.4
		l0.3,0.3c-0.7,0.2-1.7,0.4-2.6,0.4v1v0.1H36.8z"/>
	<path class="st2" d="M44.7,72.3c0.5,0,0.6-0.2,0.6-1.5c0.1,0.1,0.3,0.2,0.4,0.2c-0.1,1.4-0.2,1.7-1,1.7h-1.9c-0.8,0-1-0.2-1-0.8
		v-3.3h-0.3c-0.4,1.8-1.3,3.4-3.5,4.3c-0.1-0.1-0.2-0.3-0.3-0.3c2.2-0.8,3-2.4,3.4-4h-3.3v-0.4h3.4c0.1-0.8,0.2-1.6,0.2-2.3h-3v-0.4
		h6.8v0.4h-3.3c0,0.7-0.1,1.5-0.2,2.3h4.1v0.4h-3.4v3.3c0,0.3,0.1,0.4,0.6,0.4H44.7z"/>
	<path class="st2" d="M54.2,65.2v7.6h-0.4v-0.4h-6.4v0.4H47v-7.6H54.2z M53.8,72.1v-6.4h-6.4v6.4H53.8z M52.7,66.8
		c-0.4,0.6-1,1.1-1.6,1.6c0.7,0.4,1.6,0.7,2.5,0.8c-0.1,0.1-0.2,0.2-0.3,0.3c-0.9-0.2-1.8-0.5-2.5-0.9c-0.9,0.5-1.9,0.8-2.8,1
		c0-0.1-0.1-0.3-0.2-0.4c0.9-0.2,1.8-0.5,2.6-0.9c-0.4-0.3-0.8-0.6-1.1-1c-0.3,0.3-0.6,0.6-1,0.8c-0.1-0.1-0.2-0.2-0.3-0.3
		c0.8-0.5,1.5-1.2,2-2l0.4,0.1c-0.1,0.2-0.3,0.4-0.4,0.6h2.5l0.1,0L52.7,66.8z M48.9,70.5c1.2,0.1,2.7,0.5,3.6,0.8l-0.2,0.3
		c-0.8-0.3-2.4-0.7-3.6-0.8L48.9,70.5z M49.4,67.1c0.3,0.4,0.7,0.7,1.2,1c0.6-0.3,1-0.7,1.4-1.1h-2.5L49.4,67.1z M49.8,69.4
		c0.7,0.1,1.6,0.4,2,0.7l-0.2,0.3c-0.5-0.2-1.3-0.6-2-0.7L49.8,69.4z"/>
	<path class="st2" d="M57.2,68c0,0.4,0,0.8,0,1.2h4.4v3.7h-0.4v-3.3h-4c-0.1,1.2-0.5,2.3-1.3,3.2c-0.1-0.1-0.2-0.2-0.3-0.3
		c1.1-1.3,1.3-2.9,1.3-4.5v-2.9h0.4v2.1h2.7v-2.3h0.4v2.3h2.7v0.4h-5.9V68z"/>
</g>
</svg>
