<svg id="图层_1" data-name="图层 1" xmlns="http://www.w3.org/2000/svg" viewBox="0 0 148.27 105.45"><defs><style>.cls-1{fill:#c8c9ca;}</style></defs><title>20211015久心小程序UI无可用AED图标</title><path class="cls-1" d="M74.15,94.53a1.47,1.47,0,0,1-1.06-.45L50.34,70.73h-.23A16.27,16.27,0,0,1,33.86,54.48V16.25A16.27,16.27,0,0,1,50.11,0H98.19a16.27,16.27,0,0,1,16.26,16.25V54.48A16.27,16.27,0,0,1,98.19,70.73H98L75.22,94.08A1.49,1.49,0,0,1,74.15,94.53ZM50.11,3A13.28,13.28,0,0,0,36.84,16.25V54.48A13.29,13.29,0,0,0,50.11,67.76H51a1.47,1.47,0,0,1,1.06.45l22.12,22.7,22.13-22.7a1.47,1.47,0,0,1,1.06-.45h.85a13.3,13.3,0,0,0,13.28-13.28V16.25A13.29,13.29,0,0,0,98.19,3Z"/><path class="cls-1" d="M74.15,18.35A20.49,20.49,0,1,0,94.64,38.84,20.56,20.56,0,0,0,74.15,18.35ZM74,56.56A17.72,17.72,0,1,1,91.69,38.84,17.73,17.73,0,0,1,74,56.56Z"/><path class="cls-1" d="M75.08,27.39A8.49,8.49,0,0,0,68.43,30c-2.21,2.4-2,5.9-1.85,5.9a1.39,1.39,0,1,0,2.77-.18,5.7,5.7,0,0,1,1.3-3.88,5.88,5.88,0,0,1,4.61-1.66c2.59,0,4.25,1.11,4.62,3a3.73,3.73,0,0,1-2,4.24c-4.8,1.85-4.8,5.17-4.8,8.31V46a1.45,1.45,0,0,0,1.47,1.47A1.35,1.35,0,0,0,76,46v-.37c0-3,0-4.62,3.14-5.72a6.59,6.59,0,0,0,3.69-7.39,8.17,8.17,0,0,0-7.75-5.17Zm0,0"/><path class="cls-1" d="M72.68,50.84a1.48,1.48,0,1,0,1.47-1.48,1.47,1.47,0,0,0-1.47,1.48Zm0,0"/><path class="cls-1" d="M20.28,45.35a4.15,4.15,0,1,0-4.16-4.15,4.12,4.12,0,0,0,4.16,4.15Zm0-6.92a2.67,2.67,0,1,1-2.67,2.67,2.66,2.66,0,0,1,2.67-2.67ZM129.7,53.26a.74.74,0,0,0,.49-.2l3.27-3,3.06,2.57a.93.93,0,0,0,1,0l3.26-2.57,3,2.86a.76.76,0,0,0,1.08,0,.77.77,0,0,0,0-1.09l-3.46-3.36a.67.67,0,0,0-1,0l-3.26,2.57L134,48.51a.93.93,0,0,0-1,0l-3.75,3.36a.9.9,0,0,0-.1,1.09.83.83,0,0,0,.59.3Z"/><path class="cls-1" d="M31.94,98.33h87.38a.77.77,0,0,0,.79-.79.73.73,0,0,0-.79-.79H31.94a.79.79,0,0,0,0,1.58Zm116.44,5.54H104.89a.77.77,0,0,0-.79.79.73.73,0,0,0,.79.79h43.49a.79.79,0,1,0,0-1.58Zm-47.64,0H94.61a.77.77,0,0,0-.79.79.73.73,0,0,0,.79.79h6.13a.78.78,0,0,0,.79-.79.73.73,0,0,0-.79-.79Zm-10.18,0H1.69a.78.78,0,0,0-.79.79.73.73,0,0,0,.79.79H90.56a.79.79,0,0,0,0-1.58Zm37.06-19.28A4.65,4.65,0,1,0,123,80a4.76,4.76,0,0,0,4.64,4.64Zm0-7.71a3.17,3.17,0,1,1-3.16,3.17,3.26,3.26,0,0,1,3.16-3.17ZM5.75,73.42a.81.81,0,0,0,.49-.19l3.26-3,3.07,2.57a.88.88,0,0,0,1,0l3.27-2.57,3,2.87a.79.79,0,0,0,1.09,0,.77.77,0,0,0,0-1.09l-3.56-3.26a.66.66,0,0,0-1,0l-3.26,2.57L9.9,68.78a.89.89,0,0,0-1,0L5.15,72.14a.92.92,0,0,0-.1,1.09,2.86,2.86,0,0,0,.7.19Zm0,0"/></svg>