<svg id="图层_1" data-name="图层 1" xmlns="http://www.w3.org/2000/svg" viewBox="0 0 52.78 52.78"><defs><style>.cls-1{fill:#153258;}.cls-2{fill:#fff;}</style></defs><title>20220112久心小程序UI</title><rect class="cls-1" width="52.78" height="52.78" rx="12.96"/><path class="cls-2" d="M17.12,22c-1.17.33-2.36.67-3.34.93l-.18-.81c.89-.2,2.15-.53,3.43-.86Zm1.41-2.79s0,.29,0,.4c-.21,3.28-.41,4.51-.8,4.92a1.09,1.09,0,0,1-.86.38,13.34,13.34,0,0,1-1.54,0,2,2,0,0,0-.27-.82c.64.06,1.24.08,1.48.08A.52.52,0,0,0,17,24c.27-.27.47-1.33.64-4H14.16c.16-1.14.33-3.08.4-4.47l.84,0c-.08,1.14-.21,2.55-.33,3.63h1.61c.15-1.24.32-3.06.43-4.63H14v-.85h4c-.13,1.75-.31,4.07-.48,5.48Zm4.12-5.87c-.09.21-.19.39-.28.59a13.85,13.85,0,0,0,3.41,3.38,3.53,3.53,0,0,0-.48.9,17.24,17.24,0,0,1-3.4-3.47,12.09,12.09,0,0,1-3.28,3.49c-.12-.18-.42-.58-.57-.77a10.15,10.15,0,0,0,3.75-4.41Zm2.68,6a46.65,46.65,0,0,1-1.91,4.26h2v.85h-6.6v-.85h3.77a30.53,30.53,0,0,0,1.85-4.5ZM20,19.19a17.23,17.23,0,0,1,.86,3.08l-.79.22a14.82,14.82,0,0,0-.83-3.12Zm4-1.15H20.08v-.83h3.86ZM22,22.15a21.66,21.66,0,0,0-.53-3.1l.77-.11A23.5,23.5,0,0,1,22.84,22Z"/><path class="cls-2" d="M30.42,13.38h.95V25.11h-.95V21.5a12.37,12.37,0,0,0-3,1.26,4.62,4.62,0,0,0-.39-.88,1,1,0,0,0,.44-.88V14.62h1v6.62l2-.67Zm7.21,3.24a15,15,0,0,1-1.73,5.14,7.68,7.68,0,0,0,2.81,2.49,3.35,3.35,0,0,0-.66.8,8.32,8.32,0,0,1-2.69-2.47,9,9,0,0,1-3,2.53,3.83,3.83,0,0,0-.64-.79,7.93,7.93,0,0,0,3.08-2.59A15.73,15.73,0,0,1,33.25,18a9.43,9.43,0,0,1-1,1.67,6.44,6.44,0,0,0-.69-.81,12,12,0,0,0,2.16-5.71l1,.17c-.14.81-.34,1.61-.54,2.37H38.6v.91Zm-3.87.19a16,16,0,0,0,1.58,4.05,13.92,13.92,0,0,0,1.31-4.24H33.84Z"/><path class="cls-2" d="M17.3,35c-.18-.44-.58-1.28-.94-2v6.68h-.92V33.86a13.92,13.92,0,0,1-1.35,3.22,4.45,4.45,0,0,0-.5-.94,15,15,0,0,0,1.85-4.92H13.83v-.91h1.61V27.8h.92v2.51h1.35v.91H16.36v.51c.34.5,1.32,2.14,1.56,2.54Zm5.17,1.86a4.78,4.78,0,0,0,3.22,2.07,3.2,3.2,0,0,0-.61.8,5.18,5.18,0,0,1-3.52-2.85c-.52,1.38-1.57,2.3-3.84,2.85a3.28,3.28,0,0,0-.49-.76c1.9-.43,2.83-1.12,3.32-2.11h-3V36h3.28A10.12,10.12,0,0,0,21,34.94H18.39v-4h6.34v4H22c0,.38-.1.74-.17,1.08h3.59v.83Zm-2.73-7.14H17.85v-.82h1.89V27.82h.93v1.07h2V27.82h.94v1.07h1.82v.82H23.59v1h-.94v-1h-2v1h-.93Zm-.45,2.88H23.8v-.92H19.29Zm0,1.62H23.8v-.93H19.29Z"/><path class="cls-2" d="M34.67,31.18c.33,4.39,1.34,7.56,2.64,7.56.35,0,.5-.72.58-2.46a2.54,2.54,0,0,0,.86.54c-.17,2.26-.53,2.92-1.52,2.92-2.12,0-3.2-3.74-3.55-8.56H27v-.95h6.66c0-.77,0-1.56-.06-2.36h1c0,.81,0,1.59,0,2.36h3.86v.95Zm-4,6.45c.91-.2,1.85-.38,2.79-.59l.08.86C31.34,38.42,29,39,27.3,39.34l-.3-1,2.73-.55V34.05H27.4v-.94h5.72v.94H30.68Zm6.59-7.56a11.55,11.55,0,0,0-1.86-1.63l.66-.53a11.4,11.4,0,0,1,1.87,1.55Z"/></svg>