<svg id="图层_1" data-name="图层 1" xmlns="http://www.w3.org/2000/svg" viewBox="0 0 52.78 52.78"><defs><style>.cls-1{fill:#ea6000;}.cls-2{fill:#fff;}</style></defs><title>20220112久心小程序UI</title><rect class="cls-1" width="52.78" height="52.78" rx="12.96"/><path class="cls-2" d="M15.08,15.85A7,7,0,0,1,14,17.45a7.34,7.34,0,0,0-.84-.45,7.34,7.34,0,0,0,1.63-3l1,.16a8.37,8.37,0,0,1-.33,1H19v.75H17A7.07,7.07,0,0,1,17.54,17l-.84.31a8.33,8.33,0,0,0-.7-1.47Zm4.22.87a6.19,6.19,0,0,1,.53,1h4.86v2.18h-1V18.53H14.88v1.39h-1V17.74h4.9a8.09,8.09,0,0,0-.4-.84Zm-2.92,6.2h7.39v3.26h-1v-.43H16.38v.46h-1V19.35h7.69V22h-6.7Zm0-2.81v1.13H22.1V20.11Zm0,3.59V25H22.8V23.7ZM25,15.11v.74H22.65A7.64,7.64,0,0,1,23.39,17l-.81.38a7.45,7.45,0,0,0-.94-1.51H20.7A6.1,6.1,0,0,1,19.91,17a4.2,4.2,0,0,0-.81-.47A6,6,0,0,0,20.4,14l1,.16c-.1.34-.2.64-.32,1Z"/><path class="cls-2" d="M30.76,23.45c-1.43.48-3,1-4.14,1.38l-.22-1c.49-.14,1.11-.33,1.79-.56V19.68H26.66v-.93h1.53v-2.9H26.53v-.94h4.14v.94H29.13v2.9h1.35v.93H29.13V23l1.46-.48Zm8,1.41v.91H30.14v-.91h4V23h-3v-.91h3V20.56H31.32V14.62h6.79v5.94H35.2v1.56h3.11V23H35.2v1.83Zm-6.5-7.69h2V15.49h-2Zm0,2.52h2V18h-2Zm4.93-4.2h-2v1.68h2Zm0,2.49h-2v1.71h2Z"/><path class="cls-2" d="M16.8,35.24c-.18-.46-.6-1.31-1-2v6.84h-.95v-6a14.17,14.17,0,0,1-1.37,3.29,5.2,5.2,0,0,0-.52-1,15.41,15.41,0,0,0,1.89-5H13.25v-.94h1.64V27.88h.95v2.56h1.38v.94H15.84v.52c.35.51,1.35,2.19,1.59,2.6Zm5.29,1.89a4.88,4.88,0,0,0,3.3,2.13,3.1,3.1,0,0,0-.63.81,5.26,5.26,0,0,1-3.6-2.91c-.54,1.42-1.61,2.35-3.93,2.91a2.86,2.86,0,0,0-.51-.77c2-.44,2.9-1.15,3.41-2.17H17.07v-.84h3.35a10.64,10.64,0,0,0,.19-1.11h-2.7v-4.1H24.4v4.1H21.58c0,.39-.1.76-.17,1.11h3.67v.84Zm-2.79-7.3H17.36V29H19.3v-1.1h.95V29h2v-1.1h1V29h1.85v.84H23.24v1h-1v-1h-2v1H19.3Zm-.47,3h4.62v-1H18.83Zm0,1.66h4.62v-.95H18.83Z"/><path class="cls-2" d="M34.57,31.34c.33,4.48,1.37,7.73,2.69,7.73.37,0,.53-.74.61-2.51a2.71,2.71,0,0,0,.88.55c-.18,2.31-.55,3-1.57,3-2.16,0-3.27-3.83-3.63-8.76H26.66v-1h6.83c0-.78-.06-1.6-.07-2.41h1c0,.83,0,1.63,0,2.41h4v1Zm-4.09,6.59c.94-.2,1.9-.38,2.86-.6l.08.88c-2.26.54-4.7,1.1-6.4,1.47l-.3-1,2.79-.56V34.28H27.13v-1H33v1h-2.5Zm6.74-7.73a11.51,11.51,0,0,0-1.89-1.66L36,28a11.11,11.11,0,0,1,1.92,1.59Z"/></svg>