<svg id="图层_1" data-name="图层 1" xmlns="http://www.w3.org/2000/svg" viewBox="0 0 52.78 52.78"><defs><style>.cls-1{fill:#2ad03d;}.cls-2{fill:#fff;}</style></defs><title>20220112久心小程序UI</title><rect class="cls-1" width="52.78" height="52.78" rx="12.96"/><path class="cls-2" d="M10.08,43a3.12,3.12,0,0,0,.27.61,19.21,19.21,0,0,0-2.19,1.7,2.43,2.43,0,0,0-.4-.62,1.12,1.12,0,0,0,.5-.9V40.21H6.86V39.5H9v4.28Zm-.93-4.42A12.86,12.86,0,0,0,7.63,37l.48-.45A12.27,12.27,0,0,1,9.65,38ZM12,37.85a2.8,2.8,0,0,1-1.75,2.7A2.79,2.79,0,0,0,9.77,40a2.2,2.2,0,0,0,1.53-2.17v-1.1h3.15v2.32c0,.28,0,.37.18.37h.69a2.34,2.34,0,0,0,.47-.05,6.27,6.27,0,0,0,.07.64,2,2,0,0,1-.53.05h-.75c-.67,0-.82-.29-.82-1v-1.6H12Zm3.36,3.09a6.25,6.25,0,0,1-1.91,2.92,7.47,7.47,0,0,0,2.53,1,2.52,2.52,0,0,0-.46.66,7.35,7.35,0,0,1-2.67-1.22,9.07,9.07,0,0,1-2.67,1.2,2.15,2.15,0,0,0-.37-.66,7.87,7.87,0,0,0,2.47-1,7.23,7.23,0,0,1-1.67-2.35l.14,0h-.51v-.7h4.53l.13,0Zm-4,.52a5.86,5.86,0,0,0,1.56,2,5.39,5.39,0,0,0,1.55-2Z"/><path class="cls-2" d="M24.43,37.5a6.46,6.46,0,0,1-2.27,2,14.86,14.86,0,0,0,3.9.92,3.15,3.15,0,0,0-.45.69A14.87,14.87,0,0,1,21.38,40a16.27,16.27,0,0,1-4.31,1.32,3.3,3.3,0,0,0-.33-.71,15.6,15.6,0,0,0,3.87-1,6.72,6.72,0,0,1-1.44-1.11,9.13,9.13,0,0,1-1.47,1,2.15,2.15,0,0,0-.5-.54,6.58,6.58,0,0,0,2.89-2.53l.79.15a4.82,4.82,0,0,1-.51.73h3.45l.13,0Zm-6.3,3.66h6.48v4.32h-.77v-.3h-5v.32h-.75Zm.75.66v1H21v-1ZM21,44.53v-1.1H18.88v1.1ZM19.69,38a5.77,5.77,0,0,0,1.69,1.21,7,7,0,0,0,1.85-1.31H19.79Zm4.15,3.83H21.75v1h2.09Zm0,2.71v-1.1H21.75v1.1Z"/><path class="cls-2" d="M28.86,43.46c.2.13.41.34.76.56a4.84,4.84,0,0,0,2.67.5A36.07,36.07,0,0,0,36,44.33a3.06,3.06,0,0,0-.22.8c-.68,0-2.52.1-3.45.1a4.84,4.84,0,0,1-2.83-.58c-.41-.27-.74-.62-1-.62s-.77.61-1.25,1.32l-.52-.67a4.72,4.72,0,0,1,1.41-1.24V40.69H26.89V40h2Zm-.31-4.77A10,10,0,0,0,27,36.9l.59-.37a11.26,11.26,0,0,1,1.59,1.74ZM31,43.77A20.38,20.38,0,0,0,29.34,40a29.21,29.21,0,0,0,1.31-3.39l.73.18A31.26,31.26,0,0,1,30.08,40a24.61,24.61,0,0,1,1.6,3.48Zm2-.05A20.24,20.24,0,0,0,31.25,40a28.34,28.34,0,0,0,1.44-3.38l.73.19A34.26,34.26,0,0,1,32,40a23.8,23.8,0,0,1,1.71,3.46Zm2.06,0A20,20,0,0,0,33.18,40a31.18,31.18,0,0,0,1.57-3.38l.72.2A32.91,32.91,0,0,1,34,40a25.14,25.14,0,0,1,1.85,3.46Z"/><path class="cls-2" d="M39.56,41.7a15,15,0,0,0-.67-1.36V45.5H38.2V40.72a10.74,10.74,0,0,1-1.07,2.62,3.44,3.44,0,0,0-.38-.71A11.31,11.31,0,0,0,38.13,39H36.92v-.69H38.2V36.37h.69v1.89h1V39h-1v.43c.26.37,1,1.5,1.12,1.79Zm3.7-5.16-.2.37A11.18,11.18,0,0,0,46,39.58a3,3,0,0,0-.38.67,13.52,13.52,0,0,1-2.91-2.75A10.36,10.36,0,0,1,40,40.34a3.93,3.93,0,0,0-.44-.59,8.55,8.55,0,0,0,3.09-3.45ZM45.43,41a33.5,33.5,0,0,1-1.54,3.36h1.84V45h-5.9v-.66h3.45a24.23,24.23,0,0,0,1.49-3.54ZM41,41a11.65,11.65,0,0,1,.67,2.38l-.61.17a11.68,11.68,0,0,0-.65-2.4Zm3.48-.94H41.08v-.64h3.35Zm-1.74,3.2a18,18,0,0,0-.4-2.39l.59-.08a18.18,18.18,0,0,1,.42,2.36Z"/><path class="cls-2" d="M20.71,6.76H31.22a1.43,1.43,0,0,1,1,1.59c0,1.05,0,2.09,0,3.13,0,.09,0,.19,0,.3h3.51a1.29,1.29,0,0,1,1.49,1.47q0,2.52,0,5a1,1,0,0,0,.29.73,7.47,7.47,0,0,1,1,9.41c-.13.19-.13.3,0,.46l3.24,3.24a1.26,1.26,0,0,1,.43,1.21,1.19,1.19,0,0,1-.88,1,1.25,1.25,0,0,1-1.3-.37l-3.29-3.3c-.12-.13-.21-.17-.38-.05a6.78,6.78,0,0,1-3.48,1.23A7.38,7.38,0,0,1,25.67,28a.52.52,0,0,0-.54-.3c-3,0-5.91,0-8.87,0a1.45,1.45,0,0,1-1.59-1V12.8a1.35,1.35,0,0,1,1.56-1h3.46c0-1.17,0-2.3,0-3.43A1.42,1.42,0,0,1,20.71,6.76ZM17.2,25.13h7.54a7.58,7.58,0,0,1,10-7.93,1,1,0,0,0,0-.12c0-.86,0-1.73,0-2.59,0-.2-.11-.2-.25-.2H17.2Zm10-.82a5,5,0,1,0,5-5A5,5,0,0,0,27.22,24.31ZM29.7,11.76V9.29H22.22v2.47Z"/></svg>