<?xml version="1.0" encoding="utf-8"?>
<!-- Generator: Adobe Illustrator 25.2.1, SVG Export Plug-In . SVG Version: 6.00 Build 0)  -->
<svg version="1.1" id="图层_1" xmlns="http://www.w3.org/2000/svg" xmlns:xlink="http://www.w3.org/1999/xlink" x="0px" y="0px"
	 viewBox="0 0 100 100" style="enable-background:new 0 0 100 100;" xml:space="preserve">
<style type="text/css">
	.st0{fill:#4088FF;}
</style>
<path class="st0" d="M68.6,55.9l-10.2-7.6c-1.5-1.2-3.7-1.2-5.2,0L44.3,55l-11.9-9.5c-1.5-1.2-3.6-1.3-5.2-0.2l-12,8.1V21H79v31.9
	c0,1.6,1.3,2.9,2.9,2.9c1.6,0,2.9-1.3,2.9-2.9V20.7c0-3.1-2.5-5.6-5.6-5.6H14.9c-3.1,0-5.6,2.5-5.6,5.6v52.7c0,3.1,2.5,5.6,5.6,5.6
	h43.8c1.6,0,2.9-1.3,2.9-2.9c0-1.6-1.3-2.9-2.9-2.9H15.2V60.4l14.4-9.7l14.6,11.7l11.7-8.7l9.3,7c1.3,1,3.1,0.7,4.1-0.6
	C70.1,58.7,69.9,56.9,68.6,55.9L68.6,55.9z"/>
<path class="st0" d="M55.8,35.5c0,4.8,3.9,8.7,8.7,8.7s8.7-3.9,8.7-8.7s-3.9-8.7-8.7-8.7S55.8,30.7,55.8,35.5z M67.4,35.5
	c0,1.6-1.3,2.9-2.9,2.9s-2.9-1.3-2.9-2.9c0-1.6,1.3-2.9,2.9-2.9S67.4,33.9,67.4,35.5z M87.7,70.3h-5.8v-5.8c0-1.6-1.3-2.9-2.9-2.9
	c-1.6,0-2.9,1.3-2.9,2.9v5.8h-5.8c-1.6,0-2.9,1.3-2.9,2.9c0,1.6,1.3,2.9,2.9,2.9h5.8v5.8c0,1.6,1.3,2.9,2.9,2.9
	c1.6,0,2.9-1.3,2.9-2.9v-5.8h5.8c1.6,0,2.9-1.3,2.9-2.9C90.6,71.6,89.3,70.3,87.7,70.3z"/>
</svg>
