<?xml version="1.0" encoding="utf-8"?>
<!-- Generator: Adobe Illustrator 25.2.1, SVG Export Plug-In . SVG Version: 6.00 Build 0)  -->
<svg version="1.1" id="图层_1" xmlns="http://www.w3.org/2000/svg" xmlns:xlink="http://www.w3.org/1999/xlink" x="0px" y="0px"
	 viewBox="0 0 100 100" style="enable-background:new 0 0 100 100;" xml:space="preserve">
<style type="text/css">
	.st0{fill:#3367E9;}
</style>
<g>
	
		<image style="overflow:visible;opacity:0.46;" width="106" height="106" xlink:href="3502A94CBB7E6B76.png"  transform="matrix(1 0 0 1 0.9343 0.9343)">
	</image>
	<g>
		<path class="st0" d="M80.1,90.1H19.9c-5.5,0-10-4.5-10-10c0-15,12.2-27.2,27.2-27.2h25.7c15,0,27.2,12.2,27.2,27.2
			C90.1,85.6,85.6,90.1,80.1,90.1z M38.2,60.2c-10.9,0-19.8,8.6-19.8,19.2c0,2.2,1.8,3.9,4,3.9h55.2c2.2,0,4-1.8,4-3.9
			c0-10.6-8.9-19.2-19.8-19.2L38.2,60.2L38.2,60.2z M50,50.5c-11.2,0-20.3-9.1-20.3-20.3S38.8,9.9,50,9.9c11.2,0,20.3,9.1,20.3,20.3
			S61.2,50.5,50,50.5z M50,17.3c-7.1,0-12.9,5.8-12.9,12.9S42.9,43.1,50,43.1c7.1,0,12.9-5.8,12.9-12.9S57.1,17.3,50,17.3z"/>
	</g>
</g>
</svg>
