<?xml version="1.0" encoding="utf-8"?>
<!-- Generator: Adobe Illustrator 25.2.1, SVG Export Plug-In . SVG Version: 6.00 Build 0)  -->
<svg version="1.1" id="图层_1" xmlns="http://www.w3.org/2000/svg" xmlns:xlink="http://www.w3.org/1999/xlink" x="0px" y="0px"
	 viewBox="0 0 100 100" style="enable-background:new 0 0 100 100;" xml:space="preserve">
<style type="text/css">
	.st0{fill:#4086FF;}
</style>
<path class="st0" d="M50,11.2c-11.7-0.1-21.2,9.4-21.3,21.1c0,0,0,0,0,0.1c0,7.7,6.4,16.8,18.8,28c1.4,1.2,3.5,1.2,4.9,0
	C65,49.2,71.3,40,71.3,32.3C71.3,20.6,61.8,11.2,50,11.2C50.1,11.2,50.1,11.2,50,11.2z M50,51.8C41,43.6,36.5,36.9,36.5,32.3
	c0-7.5,6.1-13.6,13.6-13.6c7.5,0,13.6,6.1,13.6,13.6C63.6,37,59.1,43.6,50,51.8L50,51.8z"/>
<path class="st0" d="M88.3,75l0.2-0.3l0.1-0.3c0-0.1,0-0.2,0.1-0.4c0-0.2,0-0.4,0-0.6V48c0-2.1-1.7-3.9-3.9-3.9
	c-2.1,0-3.9,1.7-3.9,3.9v22.6l-22.8,9.8L34.6,66h-0.1c-0.1-0.1-0.2-0.1-0.4-0.2l-0.3-0.2h-2.2l-0.3,0.1c-0.1,0-0.3,0.1-0.4,0.2h-0.1
	l-11.7,6.4V48c0-2.1-1.7-3.9-3.9-3.9c-2.1,0-3.9,1.7-3.9,3.9v31.2c0,0.1,0,0.3,0,0.4c0,0.1,0,0.2,0,0.3l0.1,0.4
	c0,0.1,0.1,0.3,0.2,0.4c0,0.1,0,0.1,0,0.2c0.1,0.3,0.3,0.5,0.5,0.7c0.3,0.3,0.7,0.5,1.1,0.7l0.2,0.1c0.2,0.1,0.4,0.2,0.7,0.3h0.2
	c0.3,0.1,0.5,0.2,0.8,0.2c0.3,0,0.6,0,0.9,0h0.2c0.2-0.1,0.4-0.1,0.6-0.3H17L32.5,74l23.2,14.3c0.2,0,0.3,0.1,0.5,0.2
	c0.1,0.1,0.3,0.1,0.5,0.2c0.3,0.1,0.6,0.1,0.9,0.2h0.1c0.3,0,0.6,0,0.9-0.1l0.3-0.1l0.4-0.1l27.1-11.6c0.2-0.1,0.4-0.2,0.6-0.3
	l0.3-0.2l0.3-0.3c0.1-0.1,0.2-0.2,0.3-0.3l0.2-0.3L88.3,75z"/>
<path class="st0" d="M44.2,32.5c0,3.2,2.6,5.8,5.8,5.8c3.2,0,5.8-2.6,5.8-5.8s-2.6-5.8-5.8-5.8C46.8,26.7,44.2,29.3,44.2,32.5z"/>
</svg>
