<?xml version="1.0" encoding="utf-8"?>
<!-- Generator: Adobe Illustrator 25.2.1, SVG Export Plug-In . SVG Version: 6.00 Build 0)  -->
<svg version="1.1" id="图层_1" xmlns="http://www.w3.org/2000/svg" xmlns:xlink="http://www.w3.org/1999/xlink" x="0px" y="0px"
	 viewBox="0 0 100 100" style="enable-background:new 0 0 100 100;" xml:space="preserve">
<style type="text/css">
	.st0{fill:#EA2E1E;}
</style>
<path class="st0" d="M50,9.8C27.8,9.8,9.8,27.8,9.8,50S27.8,90.2,50,90.2S90.2,72.2,90.2,50S72.2,9.8,50,9.8z M66.4,62.4
	c1.1,1.1,1.1,2.9,0,4c-0.6,0.6-1.3,0.8-2,0.8s-1.5-0.3-2-0.8L50,54L37.6,66.3c-0.6,0.6-1.3,0.8-2,0.8c-0.7,0-1.5-0.3-2-0.9
	c-1.1-1.1-1.1-2.9,0-4L46,50L33.6,37.6c-1.1-1.1-1.1-2.9,0-4s2.9-1.1,4,0L50,46l12.4-12.3c1.1-1.1,2.9-1.1,4,0s1.1,2.9,0,4L54.1,50
	L66.4,62.4z"/>
</svg>
