<?xml version="1.0" encoding="utf-8"?>
<!-- Generator: Adobe Illustrator 25.2.1, SVG Export Plug-In . SVG Version: 6.00 Build 0)  -->
<svg version="1.1" id="图层_1" xmlns="http://www.w3.org/2000/svg" xmlns:xlink="http://www.w3.org/1999/xlink" x="0px" y="0px"
	 viewBox="0 0 200 200" style="enable-background:new 0 0 200 200;" xml:space="preserve">
<style type="text/css">
	.st0{fill:#FFFFFF;}
</style>
<path class="st0" d="M100,12.5c-48.2,0-87.5,39.3-87.5,87.5s39.3,87.5,87.5,87.5c48.2,0,87.5-39.3,87.5-87.5S148.2,12.5,100,12.5z
	 M135.7,127c2.4,2.4,2.4,6.4,0,8.8c-1.2,1.2-2.8,1.8-4.4,1.8c-1.6,0-3.2-0.6-4.4-1.8l-26.9-27l-27,26.7c-1.2,1.2-2.8,1.8-4.4,1.8
	c-1.6,0-3.2-0.6-4.4-1.9c-2.4-2.5-2.4-6.4,0.1-8.8L91.2,100L64.3,73c-2.4-2.4-2.4-6.4,0-8.8c2.4-2.4,6.4-2.4,8.8,0l26.9,27l27-26.7
	c2.4-2.4,6.4-2.4,8.8,0.1c2.4,2.5,2.4,6.4-0.1,8.8L108.9,100L135.7,127z"/>
</svg>
