<?xml version="1.0" encoding="utf-8"?>
<!-- Generator: Adobe Illustrator 25.2.1, SVG Export Plug-In . SVG Version: 6.00 Build 0)  -->
<svg version="1.1" id="图层_1" xmlns="http://www.w3.org/2000/svg" xmlns:xlink="http://www.w3.org/1999/xlink" x="0px" y="0px"
	 viewBox="0 0 100 100" style="enable-background:new 0 0 100 100;" xml:space="preserve">
<style type="text/css">
	.st0{fill:#737272;}
</style>
<path class="st0" d="M49.5,82.9c-0.5,0-1-0.1-1.4-0.4C33,73.8,17,55,17,37.3C17,19.4,31.6,4.8,49.5,4.8s32.5,14.6,32.5,32.5
	c0,17.3-16.2,37-31.1,45.2C50.5,82.8,50,82.9,49.5,82.9L49.5,82.9z M49.5,10.5c-14.8,0-26.8,12-26.8,26.8
	c0,14.5,13.4,31.1,26.9,39.5c13.2-8,26.8-25.2,26.8-39.5C76.4,22.5,64.3,10.5,49.5,10.5L49.5,10.5z"/>
<path class="st0" d="M49.5,53.5c-8.9,0-16.1-7.2-16.1-16.1s7.2-16.1,16.1-16.1s16.1,7.2,16.1,16.1S58.4,53.5,49.5,53.5z M49.5,26.9
	c-5.8,0-10.5,4.7-10.5,10.5s4.7,10.5,10.5,10.5S60,43.1,60,37.3S55.3,26.9,49.5,26.9z M50,95.2c-15.7,0-42.4-2.7-42.4-13
	c0-5.1,6.4-8.8,19.1-11.1c1.6-0.2,3,0.8,3.3,2.4c0.2,1.5-0.7,2.9-2.2,3.2c-11.4,2.1-14.3,4.9-14.4,5.6c0.1,0.4,2.1,2.7,10.2,4.6
	c7.2,1.8,16.6,2.7,26.5,2.7s19.3-1,26.5-2.7c8-2,10.1-4.2,10.2-4.7c-0.1-0.6-3.4-3.7-15.6-5.7c-1.5-0.3-2.6-1.7-2.3-3.3
	c0.3-1.5,1.7-2.6,3.3-2.3c9.3,1.6,20.3,4.8,20.3,11.4C92.4,92.4,65.7,95.2,50,95.2L50,95.2z"/>
</svg>
