<?xml version="1.0" encoding="utf-8"?>
<!-- Generator: Adobe Illustrator 25.2.1, SVG Export Plug-In . SVG Version: 6.00 Build 0)  -->
<svg version="1.1" id="图层_1" xmlns="http://www.w3.org/2000/svg" xmlns:xlink="http://www.w3.org/1999/xlink" x="0px" y="0px"
	 viewBox="0 0 100 100" style="enable-background:new 0 0 100 100;" xml:space="preserve">
<style type="text/css">
	.st0{fill:#FFFFFF;}
</style>
<path class="st0" d="M53,24.5l8.8-8.8c2-2,5.1-2,7.1,0l15.5,15.5c2,2,2,5.1,0,7.1L75.5,47L53,24.5L53,24.5z M48.9,28.5L12.1,65.4
	v22.6h22.6l36.8-36.8L48.9,28.5z"/>
<path class="st0" d="M47.5,84.1c0-2.1,1.7-3.8,3.8-3.8h30.7c2.1,0,3.8,1.7,3.8,3.8c0,2.1-1.7,3.8-3.8,3.8H51.4
	C49.3,87.9,47.6,86.2,47.5,84.1L47.5,84.1z"/>
<path class="st0" d="M59.1,70.6c0-2.1,1.7-3.8,3.8-3.8h19.2c2.1,0,3.8,1.7,3.8,3.8c0,2.1-1.7,3.8-3.8,3.8H62.9
	C60.8,74.5,59.1,72.7,59.1,70.6z"/>
</svg>
