<?xml version="1.0" encoding="utf-8"?>
<!-- Generator: Adobe Illustrator 25.2.1, SVG Export Plug-In . SVG Version: 6.00 Build 0)  -->
<svg version="1.1" id="图层_1" xmlns="http://www.w3.org/2000/svg" xmlns:xlink="http://www.w3.org/1999/xlink" x="0px" y="0px"
	 viewBox="0 0 100 100" style="enable-background:new 0 0 100 100;" xml:space="preserve">
<style type="text/css">
	.st0{fill:#CAF1FF;}
	.st1{fill:#4985E1;}
</style>
<path class="st0" d="M45.7,53.6l41.1-41.3L57.7,88L45.7,53.6z"/>
<path class="st1" d="M57.3,93c-0.1,0-0.2,0-0.2,0c-2.3-0.1-4.3-1.6-4.9-3.9l-9.6-32.5l-31.7-9.1c-2.3-0.7-3.8-2.6-3.9-4.9
	c-0.1-2.3,1.2-4.4,3.4-5.3L84.7,7.4c2-0.8,4.3-0.3,5.8,1.2c1.5,1.5,2,3.8,1.2,5.8L62.3,89.5C61.5,91.6,59.5,93,57.3,93L57.3,93z
	 M15,42.2l29.7,8.6c1.8,0.5,3.2,1.9,3.7,3.7l9,30.5l27.8-71L15,42.2L15,42.2z"/>
</svg>
