<?xml version="1.0" encoding="utf-8"?>
<!-- Generator: Adobe Illustrator 25.2.1, SVG Export Plug-In . SVG Version: 6.00 Build 0)  -->
<svg version="1.1" id="图层_1" xmlns="http://www.w3.org/2000/svg" xmlns:xlink="http://www.w3.org/1999/xlink" x="0px" y="0px"
	 viewBox="0 0 100 100" style="enable-background:new 0 0 100 100;" xml:space="preserve">
<style type="text/css">
	.st0{fill:url(#SVGID_1_);}
</style>
<linearGradient id="SVGID_1_" gradientUnits="userSpaceOnUse" x1="49.9662" y1="93.9194" x2="49.9662" y2="7.9905">
	<stop  offset="0" style="stop-color:#F2A26A"/>
	<stop  offset="1" style="stop-color:#F7C981"/>
</linearGradient>
<path class="st0" d="M87.3,87.4l-9.1-9.2c6.1-9.2,3.5-21.6-5.7-27.6c-9.2-6.1-21.6-3.5-27.6,5.7s-3.5,21.6,5.7,27.6
	c6.7,4.4,15.3,4.4,22,0l9.2,9.2c1.1,1.1,3,1.1,4.1,0l1.5-1.5C88.4,90.4,88.4,88.6,87.3,87.4L87.3,87.4z M72.3,72.4
	c-1.4,2.9-3.9,5.1-6.9,6.2c-1.2,0.5-2.5,0.7-3.8,0.7c-6.7,0.1-12.1-5.3-12.2-11.9s5.3-12.1,11.9-12.2C67.9,55,73.4,60.4,73.4,67
	C73.5,68.9,73.1,70.7,72.3,72.4z M35.8,71H26c-1.7-0.1-2.9-1.6-2.8-3.3c0.1-1.5,1.3-2.7,2.8-2.8h9.6c0.2-2.8,0.9-5.5,2-8.1H26
	c-1.7-0.1-3-1.5-2.9-3.2c0.1-1.6,1.3-2.9,2.9-2.9h15.4c3-3.7,6.9-6.5,11.4-8.1H26c-1.7,0-3-1.4-3-3s1.4-3,3-3h46.6c1.7,0,3,1.4,3,3
	s-1.4,3-3,3h-2.3c8.2,3,14.4,9.9,16.5,18.5V17.2c0-5.1-4.1-9.2-9.2-9.2H20.9c-5.1,0-9.2,4.2-9.2,9.2v65.9c0,5.1,4.1,9.2,9.2,9.2
	h33.3C44.4,89.5,37.1,81.1,35.8,71L35.8,71z M26,22.2h46.6c1.7,0.1,2.9,1.6,2.8,3.3c-0.1,1.5-1.3,2.7-2.8,2.8H26
	c-1.7-0.1-2.9-1.6-2.8-3.3C23.3,23.5,24.5,22.4,26,22.2z"/>
</svg>
