<?xml version="1.0" encoding="utf-8"?>
<!-- Generator: Adobe Illustrator 25.2.1, SVG Export Plug-In . SVG Version: 6.00 Build 0)  -->
<svg version="1.1" id="图层_1" xmlns="http://www.w3.org/2000/svg" xmlns:xlink="http://www.w3.org/1999/xlink" x="0px" y="0px"
	 viewBox="0 0 100 100" style="enable-background:new 0 0 100 100;" xml:space="preserve">
<style type="text/css">
	.st0{fill:#00B42A;}
	.st1{fill:#18AE38;}
</style>
<path class="st0" d="M52.4,12.1c20.9,0,37.9,17,37.9,37.9s-17,37.9-37.9,37.9S14.5,70.9,14.5,50S31.5,12.1,52.4,12.1z M52.4,22.7
	c-15.1,0-27.3,12.2-27.3,27.3s12.2,27.3,27.3,27.3S79.7,65.1,79.7,50S67.5,22.7,52.4,22.7z"/>
<path class="st1" d="M47.8,56l-9.1-7.3c-1.9-1.5-4.6-1.2-6.1,0.7c-1.5,1.9-1.2,4.6,0.7,6.1l10.1,8.1c3,2.4,7.4,2,10-0.9L71.8,42
	c1.6-1.8,1.3-4.6-0.5-6.2c-1.8-1.5-4.5-1.4-6.1,0.4L47.8,56z"/>
</svg>
