<?xml version="1.0" encoding="utf-8"?>
<!-- Generator: Adobe Illustrator 25.2.1, SVG Export Plug-In . SVG Version: 6.00 Build 0)  -->
<svg version="1.1" id="图层_1" xmlns="http://www.w3.org/2000/svg" xmlns:xlink="http://www.w3.org/1999/xlink" x="0px" y="0px"
	 viewBox="0 0 100 100" style="enable-background:new 0 0 100 100;" xml:space="preserve">
<style type="text/css">
	.st0{fill:url(#SVGID_1_);}
</style>
<linearGradient id="SVGID_1_" gradientUnits="userSpaceOnUse" x1="50.0113" y1="7.5689" x2="50.0113" y2="92.4311">
	<stop  offset="0" style="stop-color:#A2D6FA"/>
	<stop  offset="1" style="stop-color:#5993EF"/>
</linearGradient>
<path class="st0" d="M27,7.6H11.8C9.1,7.6,7,9.8,7,12.4c0,0,0,0,0,0v75.2c0,2.7,2.2,4.8,4.8,4.8h0H27c2.7,0.1,4.8-2.1,4.9-4.7
	c0,0,0-0.1,0-0.1V12.5c0.1-2.6-2-4.8-4.7-4.9C27.1,7.6,27.1,7.6,27,7.6z M19.4,87c-3.7,0-6.6-2.9-6.7-6.6c0-3.7,2.9-6.6,6.6-6.7
	c3.7,0,6.6,2.9,6.7,6.6C26,84,23.1,87,19.4,87C19.4,87,19.4,87,19.4,87z M26.2,30.1H12.5c-0.9,0-1.7-0.8-1.7-1.7
	c0-0.9,0.7-1.6,1.6-1.7c0,0,0.1,0,0.1,0h13.8c0.9,0,1.7,0.7,1.7,1.7l0,0c0,0.9-0.7,1.6-1.5,1.7c0,0,0,0,0,0H26.2z M26.2,21.9H12.5
	c-0.9,0-1.7-0.7-1.7-1.7l0,0c0-0.9,0.7-1.6,1.6-1.7c0,0,0.1,0,0.1,0h13.8c0.9,0,1.7,0.7,1.7,1.7l0,0c0,0.9-0.6,1.6-1.5,1.7
	c0,0,0,0-0.1,0H26.2z M57.6,7.6H42.4c-2.6,0-4.8,2.1-4.8,4.8c0,0,0,0,0,0v75.2c0,2.6,2.1,4.8,4.8,4.8c0,0,0,0,0,0h15.2
	c2.6,0,4.8-2.1,4.8-4.8c0,0,0,0,0,0V12.5C62.5,9.8,60.4,7.6,57.6,7.6C57.7,7.6,57.7,7.6,57.6,7.6z M50,87c-3.7,0-6.6-2.9-6.7-6.6
	c0-3.7,2.9-6.6,6.6-6.7c3.7,0,6.6,2.9,6.7,6.6C56.6,84,53.7,87,50,87C50,87,50,87,50,87z M56.9,30.1H43.2c-0.9,0-1.7-0.7-1.7-1.7
	c0,0,0,0,0,0c0-0.9,0.6-1.6,1.5-1.7c0,0,0.1,0,0.1,0h13.6c0.9,0,1.7,0.7,1.7,1.7C58.5,29.3,57.8,30,56.9,30.1
	C56.9,30.1,56.9,30.1,56.9,30.1L56.9,30.1z M56.9,21.9H43.2c-0.9,0-1.7-0.7-1.7-1.7l0,0c0-0.9,0.6-1.6,1.5-1.7c0,0,0.1,0,0.1,0h13.6
	c0.9,0,1.7,0.7,1.7,1.7C58.5,21.1,57.8,21.9,56.9,21.9C57,21.9,56.9,21.9,56.9,21.9L56.9,21.9z M88.3,7.6H73
	c-2.7-0.1-4.8,2.1-4.9,4.7c0,0,0,0.1,0,0.1v75.2c0,2.7,2.2,4.8,4.8,4.8c0,0,0,0,0,0h15.2c2.6,0.1,4.8-2,4.9-4.7c0,0,0-0.1,0-0.1
	V12.5C93.1,9.8,91,7.6,88.3,7.6C88.3,7.6,88.3,7.6,88.3,7.6L88.3,7.6z M80.6,87c-3.7,0-6.6-2.9-6.7-6.5c0-3.7,2.9-6.6,6.5-6.7
	s6.6,2.9,6.7,6.5c0,0,0,0,0,0C87.2,84,84.3,87,80.6,87C80.7,87,80.7,87,80.6,87z M87.4,30.1H73.6c-0.9,0-1.7-0.8-1.7-1.7v0
	c0-0.9,0.7-1.6,1.6-1.7c0,0,0.1,0,0.1,0h13.7c0.9,0,1.7,0.7,1.7,1.7v0c0.1,0.9-0.6,1.6-1.4,1.7H87.4z M87.4,21.9H73.6
	c-0.9,0-1.7-0.7-1.7-1.7c0-0.9,0.7-1.6,1.6-1.7c0,0,0.1,0,0.1,0h13.7c0.9,0,1.7,0.7,1.7,1.7c0,0,0,0,0,0c0,0.9-0.6,1.6-1.4,1.7H87.4
	z"/>
</svg>
