<?xml version="1.0" encoding="utf-8"?>
<!-- Generator: Adobe Illustrator 25.2.1, SVG Export Plug-In . SVG Version: 6.00 Build 0)  -->
<svg version="1.1" id="图层_1" xmlns="http://www.w3.org/2000/svg" xmlns:xlink="http://www.w3.org/1999/xlink" x="0px" y="0px"
	 viewBox="0 0 100 100" style="enable-background:new 0 0 100 100;" xml:space="preserve">
<style type="text/css">
	.st0{fill:#ACB6D0;}
</style>
<path class="st0" d="M67.2,10.3l0.5,0c4.7,0.3,8.4,4.2,8.4,8.9v44l0,0.5c-0.3,4.7-4.2,8.4-8.9,8.4H30.1l-0.5,0
	c-3.5,0.2-6.2,3.3-6,6.8c0.2,3.4,3,6,6.4,6h46.6l0.3,0c1.4-0.2,2.5-1.4,2.5-2.8V25.2l0-0.3c0.2-1.7,1.7-2.9,3.3-2.7
	c1.5,0.2,2.7,1.5,2.7,3v56.9l0,0.5c-0.3,4.7-4.2,8.4-8.9,8.4H30.1l-0.6,0c-6.6-0.3-11.9-5.8-11.9-12.5V25.2l0-0.6
	c0.3-7.9,6.9-14.2,14.8-14.2H67.2z M70.8,75.5l0.3,0c1.7,0.2,2.9,1.7,2.7,3.3c-0.2,1.5-1.5,2.7-3,2.7H32.4l-0.3,0
	c-1.7-0.2-2.9-1.7-2.7-3.3c0.2-1.5,1.5-2.7,3-2.7H70.8z M67.2,16.4H32.4l-0.5,0c-4.6,0.3-8.2,4.1-8.2,8.7v42.7
	c1.9-1.2,4.1-1.8,6.4-1.8h37.2l0.3,0c1.4-0.2,2.5-1.4,2.5-2.8v-44l0-0.3C69.9,17.5,68.7,16.4,67.2,16.4z M40.1,29.9
	c0.3,0,0.5,0.1,0.7,0.2l15.7,9.1c0.7,0.4,0.9,1.3,0.5,2c-0.1,0.2-0.3,0.4-0.5,0.5l-15.7,9.1c-0.7,0.4-1.6,0.2-2-0.5
	c-0.1-0.2-0.2-0.5-0.2-0.7V31.4C38.6,30.6,39.3,29.9,40.1,29.9L40.1,29.9L40.1,29.9z"/>
</svg>
