<?xml version="1.0" encoding="utf-8"?>
<!-- Generator: Adobe Illustrator 25.2.1, SVG Export Plug-In . SVG Version: 6.00 Build 0)  -->
<svg version="1.1" id="图层_1" xmlns="http://www.w3.org/2000/svg" xmlns:xlink="http://www.w3.org/1999/xlink" x="0px" y="0px"
	 viewBox="0 0 100 100" style="enable-background:new 0 0 100 100;" xml:space="preserve">
<style type="text/css">
	.st0{fill:url(#SVGID_1_);}
</style>
<linearGradient id="SVGID_1_" gradientUnits="userSpaceOnUse" x1="50" y1="92.0038" x2="50" y2="7.9962">
	<stop  offset="0" style="stop-color:#7CDFA6"/>
	<stop  offset="1" style="stop-color:#74EFCD"/>
</linearGradient>
<path class="st0" d="M92,26v60c0,3.1-2.3,5.7-5.4,6H14c-3.1,0-5.7-2.3-6-5.4V26H92z M48,38c-0.8,0-1.4,0.6-1.5,1.3L44,64.5l19,6.1
	c0.8,0.2,1.6-0.2,1.9-1c0.2-0.7-0.1-1.4-0.6-1.7l-12.8-8.1l-2.1-20.5C49.4,38.6,48.7,38,48,38L48,38z M82.3,8c2,0,3.9,1,5,2.7
	l0.3,0.6L92,20H8l4.4-8.7C13.3,9.5,15,8.3,17,8h0.7H82.3z"/>
</svg>
