<?xml version="1.0" encoding="utf-8"?>
<!-- Generator: Adobe Illustrator 25.2.1, SVG Export Plug-In . SVG Version: 6.00 Build 0)  -->
<svg version="1.1" id="图层_1" xmlns="http://www.w3.org/2000/svg" xmlns:xlink="http://www.w3.org/1999/xlink" x="0px" y="0px"
	 viewBox="0 0 100 100" style="enable-background:new 0 0 100 100;" xml:space="preserve">
<style type="text/css">
	.st0{opacity:0.3;fill:#FF7A2A;enable-background:new    ;}
	.st1{fill:#FF7A2A;}
</style>
<path class="st0" d="M18.5,50.4c0,21.1,17.1,38.2,38.2,38.2s38.2-17.1,38.2-38.2S77.7,12.3,56.6,12.3S18.5,29.4,18.5,50.4z"/>
<path class="st1" d="M69.6,52.9H30.4c-1.3,0-2.5-1.2-2.5-2.5c0-1.3,1.2-2.5,2.5-2.5h39.2c1.3,0,2.5,1.2,2.5,2.5
	C72.1,51.8,70.9,52.9,69.6,52.9L69.6,52.9z"/>
<path class="st1" d="M50,72.5c-1.3,0-2.5-1.2-2.5-2.5V30.9c0-1.3,1.2-2.5,2.5-2.5c1.3,0,2.5,1.2,2.5,2.5V70
	C52.5,71.3,51.3,72.5,50,72.5z"/>
<path class="st1" d="M50,96.9C24.4,96.9,3.5,76,3.5,50.4S24.4,4,50,4s46.5,20.9,46.5,46.5S75.6,96.9,50,96.9L50,96.9z M50,9
	C27.1,9,8.5,27.5,8.5,50.4S27.1,91.9,50,91.9s41.5-18.6,41.5-41.5S72.9,9,50,9z"/>
</svg>
