<?xml version="1.0" encoding="utf-8"?>
<!-- Generator: Adobe Illustrator 25.2.1, SVG Export Plug-In . SVG Version: 6.00 Build 0)  -->
<svg version="1.1" id="图层_1" xmlns="http://www.w3.org/2000/svg" xmlns:xlink="http://www.w3.org/1999/xlink" x="0px" y="0px"
	 viewBox="0 0 100 100" style="enable-background:new 0 0 100 100;" xml:space="preserve">
<style type="text/css">
	.st0{fill:#737272;}
</style>
<path class="st0" d="M50,95.5c-6.1,0-12.1-1.2-17.7-3.6c-5.4-2.3-10.3-5.6-14.5-9.7c-4.2-4.2-7.4-9-9.7-14.5
	C5.7,62.1,4.5,56.1,4.5,50s1.2-12.1,3.6-17.7c2.3-5.4,5.6-10.3,9.7-14.5c4.2-4.2,9-7.4,14.5-9.7C37.9,5.7,43.9,4.5,50,4.5
	c8.4,0,16.6,2.3,23.7,6.6c1.3,0.8,1.7,2.5,0.9,3.8s-2.5,1.7-3.8,0.9c-6.2-3.8-13.4-5.8-20.8-5.8C28,10.1,10.1,28,10.1,50
	S28,89.9,50,89.9S89.9,72,89.9,50c0-1.3-0.1-2.6-0.2-3.8c-0.1-1.5,1-2.9,2.5-3c1.5-0.1,2.9,1,3,2.5c0.1,1.4,0.2,2.9,0.2,4.4
	c0,6.1-1.2,12.1-3.6,17.7c-2.3,5.4-5.6,10.3-9.7,14.5c-4.2,4.2-9,7.4-14.5,9.7C62.1,94.3,56.1,95.5,50,95.5z"/>
<path class="st0" d="M70.3,50.1H49.6c-1.5,0-2.8,1.2-2.8,2.8s1.2,2.8,2.8,2.8h20.8c1.5,0,2.8-1.2,2.8-2.8S71.9,50.1,70.3,50.1z"/>
<path class="st0" d="M49.6,28c-1.5,0-2.8,1.2-2.8,2.8v22c0,1.5,1.2,2.8,2.8,2.8s2.8-1.2,2.8-2.8v-22C52.4,29.3,51.1,28,49.6,28z
	 M89,22.1L84.3,6.9c-0.8-2.6-4.2-3.2-5.8-1L67.3,20.7c-1.6,2.2-0.1,5.2,2.6,5.3l15.9,0.4C88,26.4,89.7,24.2,89,22.1z M49.8,81.6
	c-1.5,0-2.8,1.2-2.8,2.8v1.3c0,1.5,1.2,2.8,2.8,2.8s2.8-1.2,2.8-2.8v-1.3C52.5,82.8,51.3,81.6,49.8,81.6z M49.7,12
	c-1.5,0-2.8,1.2-2.8,2.8V16c0,1.5,1.2,2.8,2.8,2.8s2.8-1.2,2.8-2.8v-1.3C52.4,13.2,51.2,12,49.7,12z M16.2,50.4h-1.3
	c-1.5,0-2.8,1.2-2.8,2.8s1.2,2.8,2.8,2.8h1.3c1.5,0,2.8-1.2,2.8-2.8S17.7,50.4,16.2,50.4z M84.9,50.4h-1.4c-1.5,0-2.8,1.2-2.8,2.8
	s1.2,2.8,2.8,2.8h1.4c1.5,0,2.8-1.2,2.8-2.8S86.4,50.4,84.9,50.4z"/>
</svg>
