<?xml version="1.0" encoding="utf-8"?>
<!-- Generator: Adobe Illustrator 25.2.1, SVG Export Plug-In . SVG Version: 6.00 Build 0)  -->
<svg version="1.1" id="图层_1" xmlns="http://www.w3.org/2000/svg" xmlns:xlink="http://www.w3.org/1999/xlink" x="0px" y="0px"
	 viewBox="0 0 100 100" style="enable-background:new 0 0 100 100;" xml:space="preserve">
<style type="text/css">
	.st0{fill:#3BD5AC;}
</style>
<path class="st0" d="M50,5.4C25.3,5.4,5.4,25.3,5.4,50S25.5,94.6,50,94.6c24.7,0,44.6-19.9,44.6-44.6S74.5,5.4,50,5.4z M79,63.5
	c-0.7,1.4-1.8,2.1-3.2,2.1c-0.5,0-0.9,0-1.4-0.2L48.2,53.4c-1.1-0.5-2.1-1.8-2.1-3.2V25.5c0-1.8,1.6-3.4,3.4-3.4
	c1.8,0,3.4,1.6,3.4,3.4v22.6l24.2,11C79,59.8,79.7,61.7,79,63.5L79,63.5z"/>
</svg>
