<?xml version="1.0" encoding="utf-8"?>
<!-- Generator: Adobe Illustrator 25.2.1, SVG Export Plug-In . SVG Version: 6.00 Build 0)  -->
<svg version="1.1" id="图层_1" xmlns="http://www.w3.org/2000/svg" xmlns:xlink="http://www.w3.org/1999/xlink" x="0px" y="0px"
	 viewBox="0 0 100 100" style="enable-background:new 0 0 100 100;" xml:space="preserve">
<style type="text/css">
	.st0{fill:url(#SVGID_1_);}
</style>
<linearGradient id="SVGID_1_" gradientUnits="userSpaceOnUse" x1="50" y1="92.0038" x2="50" y2="7.9962">
	<stop  offset="0" style="stop-color:#7969F6"/>
	<stop  offset="1" style="stop-color:#B392FB"/>
</linearGradient>
<path class="st0" d="M80.8,53.2l11.9,14.2h-7.8c0.1,7.9-3.6,15.5-10,20.2c-4.6,3.3-10.3,4.8-16,4.2v-9.8h2.7c1,0,2.1-0.1,3.1-0.3
	c3.7-0.8,6.9-3.1,8.8-6.3c1.5-2.4,2.2-5.2,2.2-8h-6.9C72.9,62.7,76.8,58,80.8,53.2L80.8,53.2z M44.1,55c1.1-0.1,2.2,0.3,3.1,1
	c1,0.8,1.6,2,1.7,3.2v28c0.1,1.5-0.6,2.9-1.8,3.8c-0.8,0.6-1.8,0.9-2.8,0.9h-30c-2.1,0.2-4.1-1.3-4.5-3.4c-0.1-0.4-0.2-0.9-0.2-1.3
	V59.7c-0.1-2.1,1.3-3.9,3.3-4.5c0.5-0.1,0.9-0.2,1.4-0.2L44.1,55z M41,8.2v9.8h-0.6c-1.6,0-3.3,0-4.9,0.2c-2.5,0.4-4.8,1.5-6.6,3.2
	c-2.3,2.1-3.9,5-4.5,8.1c-0.2,1-0.3,2-0.4,3h7.1c-4,4.8-7.9,9.5-11.9,14.3c-4-4.7-8-9.4-11.9-14.2h7.8c-0.1-7.7,3.3-14.9,9.3-19.7
	C29.1,9.1,35.1,7.4,41,8.2z M83.5,8.2C85.3,8,87,9,87.7,10.6c0.3,0.7,0.5,1.4,0.5,2.1v27.7c0.1,2.1-1.3,3.9-3.3,4.5
	c-0.5,0.1-0.9,0.2-1.4,0.2H53.7c-1.1,0-2.1-0.3-2.9-0.9c-1.1-0.9-1.8-2.2-1.8-3.7V12.7c-0.1-2.1,1.3-4,3.3-4.5
	C52.8,8.1,53.2,8,53.7,8L83.5,8.2z"/>
</svg>
