<?xml version="1.0" encoding="utf-8"?>
<!-- Generator: Adobe Illustrator 25.2.1, SVG Export Plug-In . SVG Version: 6.00 Build 0)  -->
<svg version="1.1" id="图层_1" xmlns="http://www.w3.org/2000/svg" xmlns:xlink="http://www.w3.org/1999/xlink" x="0px" y="0px"
	 viewBox="0 0 156.3 100" style="enable-background:new 0 0 156.3 100;" xml:space="preserve">
<style type="text/css">
	.st0{fill:#DA382B;}
</style>
<path class="st0" d="M150.7,30.9v38.3c0,3.6-2.9,6.5-6.5,6.5H32.1c-0.1,0-0.3,0-0.4,0c-1.8,0.1-3.6-0.5-4.9-1.9L7.5,54.5
	C5,52,5,48,7.5,45.5l19.2-19.2c1.4-1.4,3.2-2,4.9-1.9c0.1,0,0.3,0,0.4,0h112.1C147.8,24.4,150.7,27.3,150.7,30.9z M139.9,28.9H36
	c-0.1,0-0.2,0-0.4,0c-1.6-0.1-3.3,0.4-4.5,1.5L13.5,46.1c-2.3,2.1-2.3,5.4,0,7.4l17.7,15.7c1.2,1.1,2.9,1.6,4.5,1.5
	c0.1,0,0.2,0,0.4,0h103.9c3.3,0,6-2.4,6-5.3V34.2C145.9,31.3,143.2,28.9,139.9,28.9z"/>
<path class="st0" d="M43.5,50c0,4.9-4,8.8-8.8,8.8s-8.8-4-8.8-8.8s4-8.8,8.8-8.8S43.5,45.1,43.5,50z M34.6,44.9
	c-2.8,0-5.1,2.3-5.1,5.1s2.3,5.1,5.1,5.1s5.1-2.3,5.1-5.1S37.5,44.9,34.6,44.9z"/>
</svg>
