<?xml version="1.0" encoding="utf-8"?>
<!-- Generator: Adobe Illustrator 25.2.1, SVG Export Plug-In . SVG Version: 6.00 Build 0)  -->
<svg version="1.1" id="图层_1" xmlns="http://www.w3.org/2000/svg" xmlns:xlink="http://www.w3.org/1999/xlink" x="0px" y="0px"
	 viewBox="0 0 100 100" style="enable-background:new 0 0 100 100;" xml:space="preserve">
<style type="text/css">
	.st0{fill:url(#SVGID_1_);}
</style>
<linearGradient id="SVGID_1_" gradientUnits="userSpaceOnUse" x1="50" y1="92.0031" x2="50" y2="7.9969">
	<stop  offset="0" style="stop-color:#64CA80"/>
	<stop  offset="1" style="stop-color:#76F2D5"/>
</linearGradient>
<path class="st0" d="M24.8,83.6h50.4c2.3,0,4.2,1.9,4.2,4.2c0,2.3-1.9,4.2-4.2,4.2H24.8c-2.3,0-4.2-1.9-4.2-4.2S22.5,83.6,24.8,83.6
	C24.8,83.6,24.8,83.6,24.8,83.6z M12.2,8h75.6c2.3,0,4.2,1.9,4.2,4.2V71c0,2.3-1.8,4.2-4.2,4.2c0,0,0,0,0,0H12.2
	C9.9,75.2,8,73.4,8,71c0,0,0,0,0,0V12.2C8,9.9,9.9,8,12.2,8L12.2,8z M45.8,56.5v6.1h8.4v-6.1c0.9-0.6,1.8-1.3,2.7-2.1l5,5l5.9-5.9
	l-5-5c0.8-0.9,1.5-1.8,2.1-2.7H71v-8.4h-6.1c-0.7-0.9-1.3-1.8-2.1-2.7l5-5l-5.9-5.9l-5,5c-0.9-0.7-1.8-1.4-2.7-2.1v-6.1h-8.4v6.1
	c-0.9,0.6-1.8,1.3-2.7,2.1l-5-5l-5.9,5.9l5,5c-0.7,0.9-1.4,1.7-2.1,2.7H29v8.4h6.1c0.6,0.9,1.3,1.8,2.1,2.7l-5,5l5.9,5.9l5-5
	C44,55.2,44.9,55.9,45.8,56.5z"/>
</svg>
