<?xml version="1.0" encoding="utf-8"?>
<!-- Generator: Adobe Illustrator 25.2.1, SVG Export Plug-In . SVG Version: 6.00 Build 0)  -->
<svg version="1.1" id="图层_1" xmlns="http://www.w3.org/2000/svg" xmlns:xlink="http://www.w3.org/1999/xlink" x="0px" y="0px"
	 viewBox="0 0 100 100" style="enable-background:new 0 0 100 100;" xml:space="preserve">
<style type="text/css">
	.st0{fill:#4087FF;}
</style>
<path class="st0" d="M72.9,25.4H16.6c-4.9,0-8.8,3.9-8.8,8.8v31.7c0,4.9,3.9,8.8,8.8,8.8h56.3c4.9,0,8.8-3.9,8.8-8.8V34.2
	C81.7,29.2,77.8,25.4,72.9,25.4z M74.6,65.8c0,1.1-0.7,1.8-1.8,1.8H16.6c-1.1,0-1.8-0.7-1.8-1.8V34.2c0-1.1,0.7-1.8,1.8-1.8h56.3
	c1.1,0,1.8,0.7,1.8,1.8V65.8z"/>
<path class="st0" d="M24.7,39.4c-2.1,0-3.5,1.4-3.5,3.5V57c0,2.1,1.4,3.5,3.5,3.5s3.5-1.4,3.5-3.5V43C28.2,40.8,26.8,39.4,24.7,39.4
	z M88.7,39.4h-3.5v21.1h3.5c2.1,0,3.5-1.4,3.5-3.5V43C92.2,40.8,90.8,39.4,88.7,39.4z"/>
</svg>
