<?xml version="1.0" encoding="utf-8"?>
<!-- Generator: Adobe Illustrator 25.2.1, SVG Export Plug-In . SVG Version: 6.00 Build 0)  -->
<svg version="1.1" id="图层_1" xmlns="http://www.w3.org/2000/svg" xmlns:xlink="http://www.w3.org/1999/xlink" x="0px" y="0px"
	 viewBox="0 0 100 100" style="enable-background:new 0 0 100 100;" xml:space="preserve">
<style type="text/css">
	.st0{fill:#409EFF;}
</style>
<path class="st0" d="M63.9,52.5c-1.5,0-2.5-0.9-2.5-2.3c0-5.8-5.1-10.5-11.3-10.5c-1.6,0-2.6-0.9-2.6-2.4c0-1.4,1-2.4,2.6-2.4
	c9,0,16.4,6.8,16.4,15.2C66.5,51.5,65.5,52.5,63.9,52.5z"/>
<path class="st0" d="M75.3,51.3c-1.6,0-2.6-0.9-2.6-2.4c0-11.4-10-20.8-22.3-20.8c-1.5,0-2.5-0.9-2.5-2.4c0-1.4,1-2.4,2.5-2.4
	c15.1,0,27.4,11.4,27.4,25.5C77.8,50.4,76.8,51.3,75.3,51.3z M88.3,64.7l-0.5-0.5l-11-8.1c-4-3.1-9.8-2.8-13.5,0.7l-3.7,3.4
	c-4.5-2.7-8.4-5.5-11.7-8.5c-3.3-3-6.2-6.5-9.1-10.7l3.3-3.5c0,0,0.1-0.1,0.1-0.1c3.7-3.4,3.9-9.1,0.5-12.8l-8.6-10
	c-3.4-4.1-9.8-4.8-14.2-1.6l-0.2,0.2c0.1-0.1,0.2-0.1,0,0c-0.3,0.2-0.6,0.5-0.8,0.8l-7.1,6.6c-8.7,8.1,0.1,29.8,18.7,47
	C49,84.7,72.3,93,80.9,85.3l7.5-7C92.5,74.5,92.5,68.3,88.3,64.7L88.3,64.7z M84.8,74.6l-7.4,6.9C76,82.8,73.6,83,71.8,83
	c-10,0-25.5-7.9-37.7-19.2c-14-13-20.4-26.9-20.4-34.3c0-2.3,0.6-4,1.7-5.1l7.6-7.1l0-0.1l0,0l0.1-0.1c0.9-0.6,2-1,3.2-1
	c1.6,0,3,0.6,4,1.7L39,28l0.1,0.1c0.7,0.8,1.1,1.8,1,2.8c0,1-0.5,2-1.2,2.7l-0.2,0.1l-0.2,0.2l-6.3,6.5l2.4,3.5
	c3.1,4.5,6.3,8.3,9.8,11.5c3.6,3.3,7.7,6.3,12.6,9.2l3.3,2l6.5-6c1-0.9,2.3-1.4,3.7-1.4c1.2,0,2.3,0.4,3.2,1.1l0.1,0.1l10.7,7.9
	l0.4,0.3l0.1,0.1c1.1,0.9,1.3,2,1.4,2.8C86.3,72.5,85.8,73.7,84.8,74.6L84.8,74.6z"/>
</svg>
