<?xml version="1.0" encoding="utf-8"?>
<!-- Generator: Adobe Illustrator 25.2.1, SVG Export Plug-In . SVG Version: 6.00 Build 0)  -->
<svg version="1.1" id="图层_1" xmlns="http://www.w3.org/2000/svg" xmlns:xlink="http://www.w3.org/1999/xlink" x="0px" y="0px"
	 viewBox="0 0 100 100" style="enable-background:new 0 0 100 100;" xml:space="preserve">
<style type="text/css">
	.st0{fill:#C1C1C1;}
</style>
<path class="st0" d="M50,79.7c-16.5,0-31.1-9.2-44-27.1C4.8,51,4.8,49,6,47.4c12.9-17.9,27.6-27.1,44-27.1s31.1,9.2,44,27.1
	c1.2,1.6,1.2,3.7,0,5.3C81.1,70.5,66.5,79.7,50,79.7z M50,26.3C36.4,26.3,23.8,34,12.1,50C23.8,66,36.4,73.7,50,73.7
	S76.2,66,87.9,50C76.2,34,63.6,26.3,50,26.3z M50,63.9c-8.8,0-15.9-6.2-15.9-13.9S41.2,36.1,50,36.1S65.9,42.3,65.9,50
	S58.8,63.9,50,63.9L50,63.9z M50,57.9c5,0,9.1-3.5,9.1-7.9S55,42.1,50,42.1s-9.1,3.5-9.1,7.9S45,57.9,50,57.9L50,57.9z"/>
</svg>
