<?xml version="1.0" encoding="utf-8"?>
<!-- Generator: Adobe Illustrator 25.2.1, SVG Export Plug-In . SVG Version: 6.00 Build 0)  -->
<svg version="1.1" id="图层_1" xmlns="http://www.w3.org/2000/svg" xmlns:xlink="http://www.w3.org/1999/xlink" x="0px" y="0px"
	 viewBox="0 0 100 100" style="enable-background:new 0 0 100 100;" xml:space="preserve">
<style type="text/css">
	.st0{fill:url(#SVGID_1_);}
	.st1{fill:url(#SVGID_2_);}
</style>
<linearGradient id="SVGID_1_" gradientUnits="userSpaceOnUse" x1="50" y1="11.6345" x2="50" y2="88.3655">
	<stop  offset="0" style="stop-color:#F6DB60"/>
	<stop  offset="1" style="stop-color:#EFA362"/>
</linearGradient>
<path class="st0" d="M68.9,82.2h-5.1l-2.5-12.1c-0.3-1.4-1.6-2.5-3-2.5H41.6c-1.5,0-2.7,1-3,2.5l-2.5,12.1h-5
	c-1.7,0-3.1,1.4-3.1,3.1c0,1.7,1.4,3.1,3.1,3.1h37.9c1.7,0,3-1.4,3.1-3.1C72,83.6,70.6,82.2,68.9,82.2L68.9,82.2z M44.2,73.7h11.7
	l1.7,8.4H42.4L44.2,73.7z M93.7,57.5V17.7c0-3.4-2.7-6.1-6.1-6.1c0,0,0,0,0,0H12.4c-3.3,0-6.1,2.6-6.1,6c0,0,0,0.1,0,0.1v39.8
	L93.7,57.5z"/>
<linearGradient id="SVGID_2_" gradientUnits="userSpaceOnUse" x1="49.9682" y1="61.9574" x2="49.9682" y2="72.8275">
	<stop  offset="0" style="stop-color:#F6DB60"/>
	<stop  offset="1" style="stop-color:#EFA362"/>
</linearGradient>
<path class="st1" d="M6.3,62v4.8c0,1.6,0.6,3.1,1.8,4.3c1.1,1.1,2.7,1.8,4.3,1.8h75.3c1.6,0,3.1-0.6,4.3-1.8
	c1.1-1.1,1.8-2.7,1.8-4.3V62L6.3,62L6.3,62z"/>
</svg>
