<?xml version="1.0" encoding="utf-8"?>
<!-- Generator: Adobe Illustrator 25.2.1, SVG Export Plug-In . SVG Version: 6.00 Build 0)  -->
<svg version="1.1" id="图层_1" xmlns="http://www.w3.org/2000/svg" xmlns:xlink="http://www.w3.org/1999/xlink" x="0px" y="0px"
	 viewBox="0 0 100 100" style="enable-background:new 0 0 100 100;" xml:space="preserve">
<style type="text/css">
	.st0{fill:#939393;}
</style>
<path class="st0" d="M84,26.3c0.5-0.5,1.2-1.2,1.5-1.8c3-3.7,3.3-9.3,0.8-13.3C83.8,7.1,80.1,5,75.3,5H15.6c-1.2,0-2.4,0-3.4,0.3
	C9.7,6,7.3,7.5,5.6,9.6C3.9,11.8,3,14.4,3,17.1c0,3.5,1.3,6.6,3.7,8.7c7.7,7.4,15.3,15.1,22.8,22.5v24.5l0,0.2
	c0.4,3.2,2.9,5,5.8,3.7l0.1,0c1.6-0.8,2.5-2.4,2.5-4.4V47.1c0-1.7-0.5-3.1-1.6-4.1c-3.7-3.7-7.4-7.6-10.9-11.3
	C21.8,27.9,18,23.9,14.1,20l-0.2-0.2l-0.2-0.1c-0.1,0-0.2-0.2-0.3-0.3c-0.1-0.1-0.2-0.3-0.3-0.4c-0.7-0.9-0.8-1.6-0.5-2.6
	c0.6-1.2,1.7-2.7,3-2.7h60.2c0.7,0,1.4,0.4,2,1.1c0.7,0.9,1,2.2,0.7,3.2c-0.1,0.6-0.4,0.9-1.2,1.6c-8.3,8-16.2,15.9-24.6,24.3l0,0
	c-0.8,0.8-1.8,2.1-1.8,4.1v42.3c0,0.5,0,2,1.1,3.2c0,0,0.3,0.7,1.7,1.3c1.7,0.7,3.4-0.1,3.4-0.1l0.4-0.3c1.7-1.3,1.7-3.3,1.7-4.5
	v-40c4.1-4.1,8.4-8.2,12.6-12.1C76.1,33.9,80.1,30.2,84,26.3L84,26.3z M93.2,80.5H70.5c-2.4,0-3.8,1.9-3.8,3.8v1.1
	c0,2.4,1.9,3.8,3.8,3.8h22.8c2.4,0,3.8-1.9,3.8-3.8v-1.1C97,82,95.5,80.5,93.2,80.5L93.2,80.5z M93.2,66.9H70.5
	c-2.4,0-3.8,1.9-3.8,3.8v0.8c0,2.4,1.9,3.8,3.8,3.8h22.8c2.4,0,3.8-1.9,3.8-3.8v-0.8C97,68.8,95.6,66.9,93.2,66.9z M93.2,53.8H70.5
	c-2.4,0-3.8,1.9-3.8,3.8v0.5c0,2.4,1.9,3.8,3.8,3.8h22.8c2.4,0,3.8-1.9,3.8-3.8v-0.5C97,55.3,95.5,53.8,93.2,53.8z"/>
</svg>
