<?xml version="1.0" encoding="utf-8"?>
<!-- Generator: Adobe Illustrator 25.2.1, SVG Export Plug-In . SVG Version: 6.00 Build 0)  -->
<svg version="1.1" id="图层_1" xmlns="http://www.w3.org/2000/svg" xmlns:xlink="http://www.w3.org/1999/xlink" x="0px" y="0px"
	 viewBox="0 0 100 100" style="enable-background:new 0 0 100 100;" xml:space="preserve">
<style type="text/css">
	.st0{fill:url(#SVGID_1_);}
	.st1{fill:url(#SVGID_2_);}
</style>
<linearGradient id="SVGID_1_" gradientUnits="userSpaceOnUse" x1="55.1357" y1="92.374" x2="55.1357" y2="48.5149">
	<stop  offset="0" style="stop-color:#ED655B"/>
	<stop  offset="1" style="stop-color:#F3AC91"/>
</linearGradient>
<path class="st0" d="M90.9,74.3l-5.8-5.8c3.5-6.7,0.9-15-5.8-18.5c-4.2-2.2-9.3-2-13.3,0.4l8.5,8.6c0.4,0.4,0.4,1.1,0,1.5l-3.3,3.2
	c-0.4,0.4-1,0.4-1.4,0.1c0,0,0,0-0.1-0.1l-8.5-8.5C57.4,61.7,59.5,70.1,66,74c4.1,2.4,9.1,2.6,13.3,0.4l5.8,5.8
	c1.5,1.7,4.1,1.9,5.8,0.4c1.7-1.5,1.9-4.1,0.4-5.8C91.2,74.5,91,74.4,90.9,74.3L90.9,74.3z M78.9,84.1H21.8c-2.3,0.2-4,2.1-3.8,4.4
	c0.2,2,1.8,3.7,3.8,3.8h57.1c2.3,0.2,4.3-1.5,4.4-3.8c0.2-2.3-1.5-4.3-3.8-4.4C79.3,84.1,79.1,84.1,78.9,84.1z"/>
<linearGradient id="SVGID_2_" gradientUnits="userSpaceOnUse" x1="45.4322" y1="76.288" x2="45.4322" y2="7.9905">
	<stop  offset="0" style="stop-color:#ED655B"/>
	<stop  offset="1" style="stop-color:#F3AC91"/>
</linearGradient>
<path class="st1" d="M58.4,47.6c6.5-6.6,16.6-8,24.8-3.6V12.3c0-2.4-1.9-4.3-4.3-4.3c0,0-0.1,0-0.1,0H11.9c-2.4,0-4.2,2-4.2,4.3V72
	c0,2.4,1.9,4.3,4.3,4.3h45.6C50.2,68,50.6,55.4,58.4,47.6z M42.2,43.8c0,2.3-1.7,4.1-4,4.2c0,0-0.1,0-0.1,0H21.9
	c-2.3,0.2-4.3-1.5-4.4-3.8s1.5-4.3,3.8-4.4c0.2,0,0.4,0,0.6,0h16.1C40.3,39.7,42.1,41.5,42.2,43.8z M49.4,23.9
	c0,2.3-1.9,4.1-4.1,4.1H21.9c-2.3,0.2-4.3-1.5-4.4-3.8s1.5-4.3,3.8-4.4c0.2,0,0.4,0,0.6,0h23.3C47.5,19.7,49.4,21.6,49.4,23.9
	C49.4,23.9,49.4,23.9,49.4,23.9z"/>
</svg>
