<?xml version="1.0" encoding="utf-8"?>
<!-- Generator: Adobe Illustrator 25.2.1, SVG Export Plug-In . SVG Version: 6.00 Build 0)  -->
<svg version="1.1" id="图层_1" xmlns="http://www.w3.org/2000/svg" xmlns:xlink="http://www.w3.org/1999/xlink" x="0px" y="0px"
	 viewBox="0 0 100 100" style="enable-background:new 0 0 100 100;" xml:space="preserve">
<style type="text/css">
	.st0{fill:#2F76FF;}
</style>
<path class="st0" d="M37.6,72.7c1.7-2.1,3.8-4.1,5.7-6.1l15.8-16.1c4.9-5,9.8-10,14.7-15c1.1-1.1,2.1-2.5,3.4-3.5
	c1.3-1,2.1-0.4,3.1,0.6c0.9,0.9,1.7,1.8,2.6,2.7c0.2,0.2,1.3,1.1,1.3,1.4l0-21.5c0-3.2-2.6-5.8-5.8-5.8H16.9c-3.2,0-5.8,2.6-5.8,5.8
	V83c0,3.2,2.6,5.8,5.8,5.8l15.3,0.1l3-11.4C35.2,77.5,36,74.8,37.6,72.7L37.6,72.7z M44,43.3H22.9c-1,0-1.8-0.8-1.8-1.8
	c0-1,0.8-1.8,1.8-1.8H44c1,0,1.8,0.8,1.8,1.8C45.8,42.5,45,43.3,44,43.3z M58.7,33.7H22.9c-1,0-1.8-0.8-1.8-1.8c0-1,0.8-1.8,1.8-1.8
	h35.8c1,0,1.8,0.8,1.8,1.8C60.5,32.9,59.7,33.7,58.7,33.7z M68.7,24.2H22.9c-1,0-1.8-0.8-1.8-1.8c0-1,0.8-1.8,1.8-1.8h45.8
	c1,0,1.8,0.8,1.8,1.8C70.5,23.4,69.7,24.2,68.7,24.2z"/>
<path class="st0" d="M88.2,49l-8.4-8.4c-0.9-0.9-2.5-0.9-3.4,0L41.3,75.8c-0.1,0.1-0.3,0.3-0.3,0.5l-3.5,12.6
	c-0.1,0.4,0,0.8,0.3,1.1c0.2,0.2,0.6,0.4,0.9,0.4c0.1,0,0.1,0,0.2,0l13.6-2.5c0.2,0,0.5-0.2,0.6-0.3l35.2-35.2
	C89.1,51.5,89.1,50,88.2,49z M82.8,56c-0.5,0.5-1.2,0.5-1.6,0.1l-8.4-8.4c-0.4-0.4-0.4-1.1,0.1-1.6c0.5-0.5,1.2-0.5,1.6-0.1l8.4,8.4
	C83.2,54.8,83.2,55.6,82.8,56L82.8,56z"/>
</svg>
