<?xml version="1.0" encoding="utf-8"?>
<!-- Generator: Adobe Illustrator 25.2.1, SVG Export Plug-In . SVG Version: 6.00 Build 0)  -->
<svg version="1.1" id="图层_1" xmlns="http://www.w3.org/2000/svg" xmlns:xlink="http://www.w3.org/1999/xlink" x="0px" y="0px"
	 viewBox="0 0 100 100" style="enable-background:new 0 0 100 100;" xml:space="preserve">
<style type="text/css">
	.st0{fill:#4086FF;}
</style>
<path class="st0" d="M50,10.1C28,10.1,10.1,28,10.1,50C10.1,72,28,89.9,50,89.9S89.9,72,89.9,50S72,10.1,50,10.1z M50,82.9
	c-3.2,0-7.4-6.4-9.7-17.2l19.3,0C57.4,76.5,53.2,82.9,50,82.9z M39.3,58.6C39,55.9,38.9,53,38.9,50c0-3.2,0.2-6.2,0.5-9l21.3,0
	c0.3,2.8,0.5,5.8,0.5,9c0,3.1-0.1,5.9-0.4,8.6C60.7,58.6,39.3,58.6,39.3,58.6z M50,17.1c3.2,0,7.3,6.3,9.6,16.9l-19.1,0
	C42.7,23.4,46.8,17.1,50,17.1z M67.7,41l13.9,0c0.8,2.8,1.2,5.9,1.2,8.9c0,3-0.4,5.9-1.2,8.7l-14,0c0.3-2.8,0.4-5.7,0.4-8.6
	C68.2,46.9,68,43.9,67.7,41L67.7,41z M78.7,34l-12,0c-0.8-4.1-1.8-7.8-3.1-11.1c-0.5-1.3-1.1-2.5-1.7-3.6C69.1,22.1,75,27.4,78.7,34
	z M38,19.4c-0.6,1.1-1.1,2.3-1.7,3.6c-1.3,3.3-2.4,7-3.1,11l-12,0C25,27.3,30.9,22.1,38,19.4z M18.4,41l13.9,0
	c-0.3,2.9-0.4,5.9-0.4,9c0,2.9,0.1,5.8,0.4,8.6l-13.8,0v0.7c-0.9-2.9-1.3-6.1-1.3-9.3C17.1,46.8,17.6,43.8,18.4,41z M21.1,65.6
	l12.1,0c0.8,4.2,1.8,8,3.2,11.4c0.5,1.3,1.1,2.5,1.7,3.6C30.8,77.8,24.8,72.4,21.1,65.6L21.1,65.6z M62,80.6
	c0.6-1.1,1.1-2.3,1.7-3.6c1.4-3.3,2.4-7.2,3.2-11.4l12.1,0C75.2,72.5,69.2,77.8,62,80.6z"/>
</svg>
