<?xml version="1.0" encoding="utf-8"?>
<!-- Generator: Adobe Illustrator 25.2.1, SVG Export Plug-In . SVG Version: 6.00 Build 0)  -->
<svg version="1.1" id="图层_1" xmlns="http://www.w3.org/2000/svg" xmlns:xlink="http://www.w3.org/1999/xlink" x="0px" y="0px"
	 viewBox="0 0 100 100" style="enable-background:new 0 0 100 100;" xml:space="preserve">
<style type="text/css">
	.st0{fill:#FFFFFF;}
</style>
<path class="st0" d="M85.3,20.7H14.7c-2.7,0-4.8,2.8-4.8,6v46.5c0,3.4,2.1,6.2,4.8,6.2h70.6c2.7,0,4.8-2.8,4.8-6V26.7
	C90.1,23.5,88,20.7,85.3,20.7z M24.7,32L24.7,32c2.1,0,3.7,1.7,3.7,3.7v0c0,2.1-1.7,3.7-3.7,3.7h0c-2.1,0-3.7-1.7-3.7-3.7v0
	C21,33.7,22.7,32,24.7,32z M78.6,71.2H24.1c-1.8,0-3.2-1.4-3.2-3.2v0c0-1.8,1.4-3.2,3.2-3.2h54.6c1.8,0,3.2,1.4,3.2,3.2v0
	C81.8,69.8,80.4,71.2,78.6,71.2z M78.6,55.4H24.1c-1.8,0-3.2-1.4-3.2-3.2v0c0-1.8,1.4-3.2,3.2-3.2h54.6c1.8,0,3.2,1.4,3.2,3.2v0
	C81.8,54,80.4,55.4,78.6,55.4z M46.1,39H35.6c-1.8,0-3.2-1.4-3.2-3.2v0c0-1.8,1.4-3.2,3.2-3.2h10.6c1.8,0,3.2,1.4,3.2,3.2v0
	C49.3,37.6,47.9,39,46.1,39z"/>
</svg>
