<?xml version="1.0" encoding="utf-8"?>
<!-- Generator: Adobe Illustrator 25.2.1, SVG Export Plug-In . SVG Version: 6.00 Build 0)  -->
<svg version="1.1" id="图层_1" xmlns="http://www.w3.org/2000/svg" xmlns:xlink="http://www.w3.org/1999/xlink" x="0px" y="0px"
	 viewBox="0 0 100 100" style="enable-background:new 0 0 100 100;" xml:space="preserve">
<style type="text/css">
	.st0{fill:#4086FF;}
</style>
<path class="st0" d="M50.2,87.5c-3.5,0-7-0.9-11.3-3.3c-3.8-1.9-7.5-4.7-11.3-7.5c-0.2-0.2-0.7-0.5-1.2-0.7
	c-6.1-4.5-10.3-8.4-12.9-12c-0.9-1.2-0.7-3.3-0.5-3.8V28.7c0-0.5-0.2-1.9,0.7-3c0.9-2.3,5.2-5.9,10.1-8c4.7-2.1,11.7-5.2,25.3-5.2
	c7,0,13.6,1.4,18,2.6c5.4,1.4,8.9,3,10.3,3.8l1.4,0.7c2.8,1.4,5.6,2.8,6.8,4.5c1.4,1.9,1.2,4.5,1.2,4.7v29.5c0,3,0,4-0.5,4.9
	c-0.5,0.7-1.4,2.6-6.3,6.6c-1.6,1.2-3.5,1.9-5.6,1.9c-2.8,0-5.2-1.4-5.4-1.6l-14.5-7.5c-0.7,0.9-2.3,2.6-5.4,4.7
	c-3.8,2.3-11.5,4-11.7,4l-0.7,0.2l-2.3-4.9h1.4c0,0,2.3-0.2,5.9-1.4c4.7-1.6,7.7-3.5,9.4-5.9c1.4-2.1,1.9-7,1.6-8.7v-0.9h4.9v0.9
	c0,0,0,2.8-0.2,4.7c0,1.2-0.5,2.3-0.7,3.3c1.6,0.7,6.1,2.8,10.3,4.7c1.2,0.5,2.1,0.9,3,1.4c2.6,1.2,3.5,1.9,4.7,1.9h0.2
	c1.9,0,5.2-3,6.8-5.2v-34v-0.5c-0.2,0-0.5-0.5-1.2-0.7l-0.2-0.2c-2.6-1.6-11.7-6.8-26.5-8c-1.9-0.2-3.8-0.2-5.4-0.2
	c-12.7,0-21.1,3.8-24.8,5.9c-4.2,2.6-5.4,4.2-5.6,4.7v33.3c0.5,0.2,1.2,1.4,1.6,1.9c0.5,0.5,5.4,5.4,13.1,10.8
	c8.4,5.9,13.4,8,17.3,8c1.4,0,2.8-0.2,4.5-0.7c5.6-1.9,12.9-8.2,12.9-8.4l0.7-0.7l3.3,4L71.1,77c0,0-0.7,0.7-2.8,2.6H68
	c-2.3,1.9-8,6.3-15,7.5C52.1,87.5,51.2,87.5,50.2,87.5L50.2,87.5z M25.8,68l0.5-0.7c0,0,1.9-3,3.3-7.7S31,45.1,31,45.1V24.9h1.2
	c1.6,0,9.8,0,20.2-0.5c7.3-0.5,18-1.4,18-1.4h0.7l1.9,4.9h-1.2c0,0-9.1,0.5-14.8,0.9v4.9h15.5v4.7H56.8V43h12.7v18h-5.2V47.7H44.4
	V61h-5.2V43h12.4v-4.5h-15v-4.7h15v-4.7c-5.2,0.2-13.4,0.5-15.9,0.5v11.3c0,8.9-0.2,14.8-1.4,19.9c-1.2,5.2-3.8,9.6-4,9.6l-0.5,0.9
	L25.8,68L25.8,68z"/>
</svg>
