<?xml version="1.0" encoding="utf-8"?>
<!-- Generator: Adobe Illustrator 25.2.1, SVG Export Plug-In . SVG Version: 6.00 Build 0)  -->
<svg version="1.1" id="图层_1" xmlns="http://www.w3.org/2000/svg" xmlns:xlink="http://www.w3.org/1999/xlink" x="0px" y="0px"
	 viewBox="0 0 100 100" style="enable-background:new 0 0 100 100;" xml:space="preserve">
<style type="text/css">
	.st0{fill:#ACB6D0;}
</style>
<path class="st0" d="M88.6,69.4l-17-17c0.7-4.1,1.4-7.5,1.4-8.9c0-18.2-14.5-33-32.7-33.4c-4.7-0.2-9.4,0.8-13.6,2.7
	c-1.4,0.7-2,1.4-2,2.7c-0.1,1,0.1,1.9,0.7,2.7l12.9,13l-8.9,8.9L15,27.1l-2-0.7c-1.1,0-2.8,1.6-2.8,2.8c-2.3,4.4-3.4,9.3-3.4,14.3
	C7.2,61.7,22,76.2,40.2,76.2c3.8,0.1,7.6-0.5,11.2-1.8l16.1,16.1c2.8,2.6,6.4,4.1,10.2,4.1c4,0.1,7.9-1.4,10.9-4.1
	c0.3-0.3,0.6-0.6,0.9-0.9C94.8,83.8,94.4,74.7,88.6,69.4z M83.8,85.7c-3.4,2.6-8.2,2.6-11.6,0l-17-17c-1.1-1.5-3-2-4.8-1.4l-10.2,2
	c-0.2,0-0.5,0-0.7,0c-14.3,0-25.9-11.6-25.9-25.9c-0.1-2.3,0.1-4.6,0.7-6.8l13,10.9c1.4,0.7,3,0.4,4.1-0.7l13.6-13.6
	c1.4-0.7,1.4-3.4,0-4.8L34,16.9h6.1c0.5,0,0.9,0,1.4,0c14.3,0.4,25.6,12.3,25.2,26.6c-0.2,2.5-1.4,5-2,7.5c-1.1,1.5-0.8,3.6,0.7,4.8
	l18.4,18.4c0,0,0,0,0,0C87,77.4,87,82.5,83.8,85.7z"/>
</svg>
