<?xml version="1.0" encoding="utf-8"?>
<!-- Generator: Adobe Illustrator 25.2.1, SVG Export Plug-In . SVG Version: 6.00 Build 0)  -->
<svg version="1.1" id="图层_1" xmlns="http://www.w3.org/2000/svg" xmlns:xlink="http://www.w3.org/1999/xlink" x="0px" y="0px"
	 viewBox="0 0 100 100" style="enable-background:new 0 0 100 100;" xml:space="preserve">
<style type="text/css">
	.st0{fill:#4088FF;}
</style>
<path class="st0" d="M30.6,49.2c0,4.6-3.7,8.3-8.3,8.3S14,53.8,14,49.2c0-4.6,3.7-8.3,8.3-8.3S30.6,44.7,30.6,49.2z"/>
<path class="st0" d="M50,25.1l2.8-1.6c6.6-3.8,12.7-6,17.7-6.5c5-0.5,8.2,0.7,10,2.5c1.8,1.8,2.9,4.7,2.6,9.3
	c-0.2,2.2-0.7,4.6-1.6,7.5c-0.9,2.7-2.1,5.5-3.6,8.4c-1.6-2.2-3.3-4.5-5.2-6.7c1.6-1.5,2.5-3.6,2.5-6c0-4.6-3.7-8.3-8.3-8.3
	s-8.3,3.7-8.3,8.3c0,4.6,3.7,8.3,8.3,8.3c0.2,0,0.3,0,0.5,0c2.8,3.2,5.3,6.4,7.4,9.6c-2.1,3.2-4.5,6.4-7.3,9.5c-0.2,0-0.5,0-0.7,0
	c-4.6,0-8.3,3.7-8.3,8.3c0,4.6,3.7,8.3,8.3,8.3s8.3-3.7,8.3-8.3c0-2.3-0.9-4.3-2.4-5.8c1.9-2.2,3.6-4.4,5.2-6.7
	c1.5,2.9,2.7,5.7,3.6,8.4c2.8,8.7,1.6,14.3-1,16.9c-1,1-2.5,1.8-4.4,2.3c-1.5,0.3-3.4,0.4-5.6,0.2c-5-0.5-11.1-2.6-17.7-6.5
	l-1.5-0.9c-5-3.1-10.1-7.1-15-12l0,0c-0.3-0.3-0.7-0.3-1,0c0,0,0,0,0,0l-2.9,2.9c-0.3,0.3-0.3,0.7,0,1c0,0,0,0,0,0l0,0
	c4,4,8.1,7.4,12.3,10.3c-5.6,3-10.8,4.6-15.1,5.1c-5,0.5-8.2-0.7-10-2.5c-0.5-0.5-1-1.1-1.4-1.9c-0.6-1.1-1-2.4-1.2-4
	c-0.1-1.2-0.1-2.6,0-4.2c0.2-1.6,0.5-3.3,1-5.2c0.2-0.6,0.3-1.1,0.5-1.7c0.6-2,1.5-4.1,2.5-6.2c0.4,0.1,0.9,0.1,1.3,0.1
	c4.6,0,8.3-3.7,8.3-8.3c0-1.8-0.6-3.4-1.5-4.8c2.1-2.7,4.5-5.5,7.2-8.1l0,0c0.3-0.3,0.3-0.7,0-1c0,0,0,0,0,0l-2.9-2.9
	c-0.3-0.3-0.7-0.3-1,0l0,0c-2.9,2.9-5.5,5.8-7.8,8.8c-0.7-0.2-1.5-0.3-2.3-0.3c-0.7,0-1.3,0.1-2,0.2c-1.9-4.3-3-8.2-3.3-11.6
	c-0.5-5,0.7-8.2,2.5-10c1.8-1.8,5-3,10-2.5c5,0.5,11.1,2.6,17.7,6.5L50,25.1z M16.1,54.8c-2.1,4.4-3.6,8.7-4.3,12.6
	c-1.2,7-0.2,12.9,3.5,16.8l0,0c0.1,0.1,0.1,0.1,0.2,0.2c6.8,6.8,20.4,5.1,34.4-3.1C63,89,75.7,91,82.9,85.7c0.6-0.4,1.1-0.8,1.6-1.3
	c6.8-6.8,5.1-20.4-3.1-34.4c4.7-8.1,7.3-16,7.3-22.6c0-4.8-1.2-8.9-4-11.8l-0.1,0.1c-0.1-0.1-0.1-0.1-0.2-0.2
	C77.6,8.8,64,10.5,50,18.7c-14-8.2-27.6-9.9-34.4-3.1c-5.9,5.9-5.4,16.8,0.1,28.7c-1,1.4-1.7,3.1-1.7,5C14,51.4,14.8,53.3,16.1,54.8
	z M50,56.9c-3.8,0-6.9-3.1-6.9-6.9c0-3.8,3.1-6.9,6.9-6.9s6.9,3.1,6.9,6.9C56.9,53.8,53.8,56.9,50,56.9z M50,62.5
	c6.9,0,12.5-5.6,12.5-12.5S56.9,37.6,50,37.6S37.5,43.1,37.5,50S43.1,62.5,50,62.5z"/>
</svg>
