<?xml version="1.0" encoding="utf-8"?>
<!-- Generator: Adobe Illustrator 25.2.1, SVG Export Plug-In . SVG Version: 6.00 Build 0)  -->
<svg version="1.1" id="图层_1" xmlns="http://www.w3.org/2000/svg" xmlns:xlink="http://www.w3.org/1999/xlink" x="0px" y="0px"
	 viewBox="0 0 100 100" style="enable-background:new 0 0 100 100;" xml:space="preserve">
<style type="text/css">
	.st0{fill:#4088FF;}
</style>
<path class="st0" d="M72.9,20.5c3.6,0,6.5,2.9,6.5,6.5v45.8c0,3.6-2.9,6.5-6.5,6.5H27.1c-3.6,0-6.5-2.9-6.5-6.5V27.1
	c0-3.6,2.9-6.5,6.5-6.5c0,0,0,0,0,0H72.9z M67.3,37.4c-0.8-0.7-2.1-0.7-2.8,0.1l-19,20.7L35.4,48c-0.8-0.8-2-0.8-2.8,0
	c-0.8,0.7-0.8,2-0.1,2.8c0,0,0,0,0,0l11.6,11.8c0.8,0.8,2.1,0.8,2.9,0l20.4-22.2C68.2,39.4,68.2,38.2,67.3,37.4
	C67.4,37.4,67.4,37.4,67.3,37.4L67.3,37.4z"/>
</svg>
