<?xml version="1.0" encoding="utf-8"?>
<!-- Generator: Adobe Illustrator 25.2.1, SVG Export Plug-In . SVG Version: 6.00 Build 0)  -->
<svg version="1.1" id="图层_1" xmlns="http://www.w3.org/2000/svg" xmlns:xlink="http://www.w3.org/1999/xlink" x="0px" y="0px"
	 viewBox="0 0 100 100" style="enable-background:new 0 0 100 100;" xml:space="preserve">
<style type="text/css">
	.st0{fill:#FF7916;}
</style>
<path class="st0" d="M50,93C26.3,92.9,7,73.7,7.1,50c0-17.2,10.3-32.8,26.2-39.5c21.9-9.2,47.1,1,56.3,22.9s-1,47.1-22.9,56.3
	C61.4,91.8,55.7,93,50,93z M45.8,65.8c0,2.1,1.7,3.7,3.8,3.7c2,0,3.6-1.7,3.7-3.7H45.8z M35.9,58.4c-1.4,0-2.5,1.1-2.5,2.5
	c0,1.4,1.1,2.5,2.5,2.5h27.3c1.4,0,2.5-1.1,2.5-2.5c0-1.4-1.1-2.5-2.5-2.5h-1.2V46c0-5.9-4.2-11-9.9-12.2v-1.5
	c0-1.4-1.1-2.5-2.5-2.5c-1.4,0-2.5,1.1-2.5,2.5v1.5c-5.8,1.2-9.9,6.3-9.9,12.2v12.4L35.9,58.4z"/>
</svg>
