<?xml version="1.0" encoding="utf-8"?>
<!-- Generator: Adobe Illustrator 25.2.1, SVG Export Plug-In . SVG Version: 6.00 Build 0)  -->
<svg version="1.1" id="图层_1" xmlns="http://www.w3.org/2000/svg" xmlns:xlink="http://www.w3.org/1999/xlink" x="0px" y="0px"
	 viewBox="0 0 100 100" style="enable-background:new 0 0 100 100;" xml:space="preserve">
<style type="text/css">
	.st0{fill:#3367E9;}
</style>
<g>
	
		<image style="overflow:visible;opacity:0.46;" width="123" height="118" xlink:href="97EA4ABB56146C61.png"  transform="matrix(1 0 0 1 -8.0657 -6.0657)">
	</image>
	<g>
		<path class="st0" d="M75,90.4H60.2c-3.7,0-6.5-3.2-6.5-7.1V68h-7.5v15.3c0,4.1-2.8,7.1-6.5,7.1H25c-3.7,0-6.7-3.2-6.7-7.1V53h-3.6
			c-3.4,0-6.4-1.9-7.3-4.9c-0.9-2.6-0.2-5.4,2.1-7.5l35.9-29.4c2.4-2.2,6.5-2.2,9.2,0l35.9,29.4c2.2,1.9,3,4.9,2.1,7.5
			c-1.1,3-4.1,4.9-7.5,4.9h-3.4v30.3C81.7,87.2,78.7,90.4,75,90.4L75,90.4z M61.1,82.9h13.1V52.6c0-3.9,3.4-7.1,7.5-7.1h2.8
			L49.9,17.3L15.3,45.5h3c3.9,0,7.1,3.2,7.1,7.1v30.3h13.1V67.6c0-3.7,3.6-7.1,7.5-7.1h7.7c3.9,0,7.5,3.4,7.5,7.1V82.9z"/>
	</g>
</g>
<path class="st0" d="M57.4,86.7c-2.1,0-3.7-1.7-3.7-3.7V68h-7.5v15c0,2.1-1.7,3.7-3.7,3.7c-2.1,0-3.7-1.7-3.7-3.7V67.6
	c0-3.7,3.6-7.1,7.5-7.1h7.5c3.9,0,7.5,3.4,7.5,7.1v15.3C61.1,85,59.4,86.7,57.4,86.7L57.4,86.7z"/>
<path class="st0" d="M57.4,47.4h-15c-2.1,0-3.7-1.7-3.7-3.7c0-2.1,1.7-3.7,3.7-3.7h15c2.1,0,3.7,1.7,3.7,3.7
	C61.1,45.7,59.4,47.4,57.4,47.4z"/>
</svg>
