<?xml version="1.0" encoding="utf-8"?>
<!-- Generator: Adobe Illustrator 25.2.1, SVG Export Plug-In . SVG Version: 6.00 Build 0)  -->
<svg version="1.1" id="图层_1" xmlns="http://www.w3.org/2000/svg" xmlns:xlink="http://www.w3.org/1999/xlink" x="0px" y="0px"
	 viewBox="0 0 100 100" style="enable-background:new 0 0 100 100;" xml:space="preserve">
<style type="text/css">
	.st0{fill:#04BAFE;}
	.st1{fill:#FFFFFF;}
</style>
<path class="st0" d="M50,4.1c-20.9,0-37.7,17-37.7,38c0,10.4,4.2,20,11.1,26.8L50,95.6l26.7-26.8c7.1-7.1,11.1-16.7,11.1-26.8
	C87.7,21.1,70.7,4.1,50,4.1z M50,67.3c-6.7,0-13.1-2.7-17.8-7.5S24.9,48.6,24.9,42s2.7-13.1,7.3-17.8c4.6-4.8,11.1-7.3,17.8-7.5
	c6.7,0,13.1,2.7,17.8,7.5c4.6,4.6,7.3,11.2,7.3,17.8c0,6.7-2.7,13.1-7.3,17.8C63.1,64.6,56.6,67.2,50,67.3L50,67.3z"/>
<circle class="st1" cx="50" cy="42" r="27"/>
<path class="st0" d="M50,21.1c-11.5,0-20.9,9.4-20.9,20.9c0,4.1,0.8,6.7,2.4,8.9l0.9-0.4c1.3-0.7,2.6-1.5,4-2.2
	c4.8-2.2,8.5-1.6,12.6,2.1c1.2,1.1,2.6,1,4.2,1.3C55,52,56,52.3,56,53.6c0,0.6-0.5,0.9-0.9,0.9c-5.5,0.1-6.5,0.5-11.4-2.5
	c0.5,1.2,1.2,2.4,2.5,3c2.8,1.3,4.6,1.1,9,1c1.1,0,1.9-0.9,2.1-2c0.3-1.6-1-2.5-2.4-2.9c0.8-0.3,3.1-1.6,3.5-1.8
	c1.6-0.6,2.7-0.1,2.6,0.7c0.2-0.1,0.5-0.2,0.8-0.3c1.1-0.4,2.2,0.1,2,0.9l1.2-0.5c2.4-0.9,3.7,1.3,1.5,2.6
	c-6.8,4.3-7.3,4.5-14.1,6.5c-0.7,0.2-1.3,0.2-2,0.1c-5.3-0.9-5.6-0.9-10.3-3.4c-0.7-0.4-1.4-0.6-2.2-0.4c-1,0.2-2.1,0.6-3.2,1
	C38.5,60.5,43.9,63,50,63c11.5,0,20.9-9.4,20.9-20.9C70.9,30.5,61.6,21.1,50,21.1z M61.1,38.1c-0.8,1.2-2.1,2.6-3.8,4.2
	c-1.7,1.7-4,3.7-6.9,6.2c-0.2,0.2-0.5,0.2-0.7,0c-2.9-2.5-5.1-4.5-6.9-6.2c-1.7-1.6-2.9-3-3.8-4.2c-0.2-0.4-0.5-0.7-0.7-1.1h4.2
	c0.1,0,0.3,0,0.4-0.2l1.8-1.8l3.2,6.3c0.1,0.2,0.3,0.3,0.5,0.3h0c0.2,0,0.4-0.1,0.5-0.4l3.1-8.1l2.9,5.8c0.1,0.3,0.5,0.4,0.8,0.2
	c0,0,0.1,0,0.1-0.1L58,37h3.9C61.6,37.4,61.3,37.8,61.1,38.1z M62.7,35c-0.1,0.2-0.1,0.5-0.2,0.8h-4.7c-0.1,0-0.3,0-0.4,0.1
	l-1.8,1.8l-3.2-6.3c0-0.1-0.2-0.2-0.3-0.3c-0.3-0.1-0.6,0-0.7,0.3l-3.1,8.1l-2.9-5.8c0,0,0-0.1-0.1-0.1c-0.2-0.2-0.6-0.2-0.8,0
	l-2.2,2.1h-4.5c-0.1-0.2-0.2-0.5-0.2-0.8c-0.3-0.9-0.3-1.7-0.3-2.7c0-2.4,1.2-4.6,3.1-5.8c3.2-2.1,7.6-1.3,9.7,2
	c1.3-2,3.5-3.1,5.8-3.1c3.9,0,7,3.2,7,7C62.9,33.3,62.9,34.1,62.7,35z"/>
</svg>
