<?xml version="1.0" encoding="utf-8"?>
<!-- Generator: Adobe Illustrator 25.2.1, SVG Export Plug-In . SVG Version: 6.00 Build 0)  -->
<svg version="1.1" id="图层_1" xmlns="http://www.w3.org/2000/svg" xmlns:xlink="http://www.w3.org/1999/xlink" x="0px" y="0px"
	 viewBox="0 0 100 100" style="enable-background:new 0 0 100 100;" xml:space="preserve">
<style type="text/css">
	.st0{fill:#FF0000;}
	.st1{fill:#FFFFFF;}
</style>
<path class="st0" d="M50.4,4.1c-20.9,0-37.7,17-37.7,38c0,10.4,4.2,20,11.1,26.8l26.7,26.8l26.7-26.8c7.1-7.1,11.1-16.7,11.1-26.8
	C88.1,21.1,71.1,4.1,50.4,4.1z M50.4,67.3c-6.7,0-13.1-2.7-17.8-7.5S25.3,48.6,25.3,42s2.7-13.1,7.3-17.8c4.6-4.8,11.1-7.3,17.8-7.5
	c6.7,0,13.1,2.7,17.8,7.5c4.6,4.6,7.3,11.2,7.3,17.8c0,6.7-2.7,13.1-7.3,17.8C63.5,64.6,57,67.2,50.4,67.3L50.4,67.3z"/>
<circle class="st1" cx="50.5" cy="42" r="27"/>
<path class="st0" d="M50.5,25.9c7.1,0,12.9,5.6,13.2,12.6l0,0.6v12.7l1.3,0c2.2,0,4,1.8,4,4s-1.8,4-4,4H36c-2.2,0-4-1.8-4-4
	s1.8-4,4-4l1.3,0V39.1c0-7.1,5.6-12.9,12.6-13.2L50.5,25.9z M64.2,54.8h-2.4l-0.2,0c-0.7,0.1-1.2,0.8-1.1,1.5
	c0.1,0.6,0.7,1.1,1.3,1.1h2.4l0.2,0c0.7-0.1,1.2-0.8,1-1.5C65.4,55.3,64.8,54.8,64.2,54.8z M54.2,54.8H36.9l-0.2,0
	c-0.7,0.1-1.2,0.8-1.1,1.5c0.1,0.6,0.7,1.1,1.3,1.1h17.3l0.2,0c0.7-0.1,1.2-0.8,1-1.5C55.4,55.3,54.9,54.8,54.2,54.8z M52.6,32.4
	l-7.4,9.7l3.3,1.2l-1.8,7.9l7.4-9.2l-3.5-1.2L52.6,32.4L52.6,32.4z"/>
<path class="st0" d="M70.6,33.8c0.2,0.7-0.2,1.4-0.8,1.7l-2.8,0.9c-0.7,0.2-1.4-0.2-1.7-0.9c-0.2-0.7,0.2-1.4,0.8-1.6l2.8-0.9
	C69.6,32.7,70.3,33.1,70.6,33.8L70.6,33.8z M32.1,32.9l2.8,0.9c0.7,0.3,1,1,0.8,1.7c-0.2,0.6-0.9,1-1.6,0.8l-2.8-0.9
	c-0.7-0.3-1-1-0.8-1.7C30.8,33.1,31.5,32.8,32.1,32.9z M62.9,23.2c0.6,0.4,0.7,1.3,0.3,1.8c0,0,0,0,0,0l-1.8,2.4
	c-0.4,0.6-1.2,0.8-1.8,0.3c-0.6-0.4-0.8-1.2-0.3-1.8c0,0,0,0,0-0.1l1.8-2.4C61.5,22.9,62.3,22.8,62.9,23.2L62.9,23.2z M40,23.5
	l1.8,2.4c0.4,0.6,0.3,1.4-0.3,1.8c-0.6,0.4-1.4,0.3-1.8-0.3l-1.8-2.4c-0.4-0.6-0.3-1.4,0.3-1.8S39.5,22.9,40,23.5L40,23.5z
	 M50.5,19.2c0.7,0,1.3,0.6,1.3,1.3v3c0,0.7-0.6,1.3-1.3,1.3s-1.3-0.6-1.3-1.3v-3C49.2,19.8,49.8,19.2,50.5,19.2z"/>
</svg>
