<?xml version="1.0" encoding="utf-8"?>
<!-- Generator: Adobe Illustrator 25.2.1, SVG Export Plug-In . SVG Version: 6.00 Build 0)  -->
<svg version="1.1" id="图层_1" xmlns="http://www.w3.org/2000/svg" xmlns:xlink="http://www.w3.org/1999/xlink" x="0px" y="0px"
	 viewBox="0 0 100 100" style="enable-background:new 0 0 100 100;" xml:space="preserve">
<style type="text/css">
	.st0{fill:#90A1B3;}
	.st1{fill:#FFFFFF;}
</style>
<path class="st0" d="M50.4,4.1c-20.9,0-37.7,17-37.7,38c0,10.4,4.2,20,11.1,26.8l26.7,26.8l26.7-26.8c7.1-7.1,11.1-16.7,11.1-26.8
	C88.1,21.1,71.1,4.1,50.4,4.1z M50.4,67.3c-6.7,0-13.1-2.7-17.8-7.5S25.3,48.6,25.3,42s2.7-13.1,7.3-17.8c4.6-4.8,11.1-7.3,17.8-7.5
	c6.7,0,13.1,2.7,17.8,7.5c4.6,4.6,7.3,11.2,7.3,17.8c0,6.7-2.7,13.1-7.3,17.8C63.5,64.6,57,67.2,50.4,67.3L50.4,67.3z"/>
<circle class="st1" cx="50.5" cy="42" r="27"/>
<g>
	<path class="st0" d="M73.6,48.5c0.9,0.3,0.9,0.3,1.2,0.5c0.4,0.5,0.6,1.1,0.6,1.9c0,0.3,0,0.6,0,1.1c-0.6,1.4-1.6,1.8-3.2,1.8
		c-5.4-0.1-10.6,0-16.1,0c-0.3,0-0.6,0-1.1,0c0.1-0.2,0.1-0.3,0.2-0.5c0.7-2.2-0.4-4.2-2.7-4.5c-0.9-0.1-2-0.1-3-0.1
		c-2-0.1-3.9-0.1-5.9-0.3c-1.5-0.2-2.8-0.5-4.4-0.8C39.2,48,39.1,48.5,39,49c1.9,0.4,3.7,0.8,5.6,1.2c0.6,0.1,1.3,0.1,2,0.1
		c1.7,0,3.4,0,5.1,0c0.4,0,0.7,0.1,1.2,0.1c0.8,0.2,1.3,0.8,1.3,1.7s-0.5,1.5-1.4,1.6c-0.3,0.1-0.6,0.1-1.1,0.1c-4.3,0-8.5,0-12.9,0
		c-0.5,0-1.2-0.1-1.7-0.2c-2.4-0.5-3.6-3.6-2.4-5.7c0.9-1.6,2.4-2.1,4.1-2.1c3.3,0,6.2-0.1,9.5,0c1.2,0,1.4,0.6,2.4,0.7
		c0.9,0.1,1.7-0.7,2.3-0.6c1.2-0.2,6.2-0.1,7,0"/>
	<path class="st0" d="M29.9,45.6c-2.3,0-4.2,1.8-4.2,4.2c0,2.3,1.8,4.2,4.2,4.2s4.2-1.8,4.2-4.2C34.1,47.4,32.1,45.6,29.9,45.6z"/>
	<path class="st0" d="M44,35.5c-0.6-1.1-1.3-2.2-1.9-3.3c-0.2-0.4-0.4-0.8-0.6-1.3c-0.2-0.7-0.1-1.5,0.4-2.1
		c1.1-1.4,2.5-1.9,4.2-1.8c0.3,0,0.5,0.1,0.5,0.4c0.4,2.3,2.5,3.5,4.5,3.4c1.9-0.1,4.1-1.5,4.6-3.6c0.1-0.3,0.2-0.4,0.6-0.4
		c0.8,0.1,1.7,0,2.5,0.2c1.5,0.4,2.2,1.8,1.7,3.3c-0.4,1.2-1.2,2.2-1.7,3.4c-0.4,0.8-0.8,1.6-1.3,2.4c-0.3,0.8-0.8,1.6-1.3,2.3
		c-1.3,2.2-2.5,4.3-3.8,6.5c-0.3,0.5-0.6,0.9-1.2,1.2c-0.6,0.2-1.4,0.1-1.7-0.4c-0.4-0.4-0.4-1.2-0.1-1.7c1.6-2.8,3.1-5.7,4.5-8.5
		c0.4-0.8,0.9-1.6,1.3-2.4c0-0.1,0.1-0.2,0.1-0.3s0.1-0.1,0-0.2c-0.1,0-0.1,0-0.2,0.1c-0.1,0.1-0.2,0.3-0.3,0.5
		c-0.8,1.6-1.7,3.1-2.5,4.6c-0.4,0.7-0.7,1.5-1.3,2.1c-0.1,0.1-0.2,0.2-0.4,0.2c-0.3-0.2-0.4-0.5-0.6-0.8c-1.2-2-2.3-4-3.5-6
		c-0.1-0.1-0.2-0.3-0.3-0.4c-0.1,0-0.2-0.1-0.3,0c-0.1,0.1,0,0.2,0,0.3c0.2,0.3,0.3,0.6,0.5,0.9c1.1,1.9,2.1,3.7,3.2,5.6
		c0.2,0.3,0.4,0.6,0.6,1.1c0.1,0.2,0.1,0.4,0,0.6c-0.4,0.8-0.8,1.7-1.3,2.5c-0.2,0.4-0.4,0.4-0.7,0c-1.2-2-2.4-4-3.6-6
		c-0.2-0.3-0.4-0.6-0.5-0.9c0,0,0-0.1-0.1-0.1C44.4,36.2,44.1,35.9,44,35.5L44,35.5z"/>
	<path class="st0" d="M51.1,30.2c-2.3,0-4.2-1.9-4.2-4.1c0-2.3,1.9-4.2,4.1-4.2c2.3,0,4.2,1.9,4.2,4.1
		C55.3,28.3,53.4,30.2,51.1,30.2z"/>
	<path class="st0" d="M57.6,44v0.2c0,0.4,0.2,0.8-0.1,1.1c-0.2,0.2-0.7,0.1-1.2,0.1c-1.1,0-2.2,0-3.4,0c1.5-2.5,3-5.1,4.5-7.6h0.1
		L57.6,44L57.6,44z"/>
	<path class="st0" d="M44.5,37.8c0.7,1.2,1.5,2.3,2.1,3.5c0.7,1.3,1.4,2.4,2.2,3.6c0.1,0.1,0.2,0.2,0.1,0.4
		c-0.1,0.1-0.2,0.1-0.4,0.1c-1.3,0-2.4,0-3.7,0c-0.1,0-0.3,0.1-0.3-0.2C44.5,42.6,44.5,40.2,44.5,37.8z"/>
</g>
</svg>
